<svg width="18" height="13" viewBox="0 0 18 13" fill="none" xmlns="http://www.w3.org/2000/svg">
<path d="M5.79941 10.6369H5.80023C5.80092 10.6369 5.80161 10.6367 5.80229 10.6367H15.3633C15.5987 10.6367 15.8056 10.4806 15.8703 10.2543L17.9797 2.87144C18.0251 2.71228 17.9933 2.54117 17.8937 2.40906C17.794 2.27695 17.6381 2.19922 17.4727 2.19922H4.58322L4.20625 0.502792C4.15256 0.261505 3.9386 0.0898438 3.69141 0.0898438H0.527344C0.236069 0.0898438 0 0.325913 0 0.617188C0 0.908463 0.236069 1.14453 0.527344 1.14453H3.26843C3.33518 1.44514 5.07239 9.26274 5.17236 9.71249C4.61192 9.95612 4.21875 10.5149 4.21875 11.1641C4.21875 12.0364 4.92847 12.7461 5.80078 12.7461H15.3633C15.6546 12.7461 15.8906 12.51 15.8906 12.2188C15.8906 11.9275 15.6546 11.6914 15.3633 11.6914H5.80078C5.51006 11.6914 5.27344 11.4548 5.27344 11.1641C5.27344 10.8737 5.50923 10.6375 5.79941 10.6369ZM16.7735 3.25391L14.9654 9.58203H6.22376L4.81751 3.25391H16.7735Z" fill="white"/>
</svg>
