<svg width="216" height="155" viewBox="0 0 216 155" fill="none" xmlns="http://www.w3.org/2000/svg">
<path d="M14.512 142.53C18.8442 150.564 28.0386 154.013 28.0386 154.013C28.0386 154.013 30.2092 144.436 25.877 136.402C21.5448 128.367 12.3504 124.918 12.3504 124.918C12.3504 124.918 10.1798 134.496 14.512 142.53Z" fill="#00B2E2"/>
<path d="M17.49 139.887C25.3113 144.592 28.3236 153.939 28.3236 153.939C28.3236 153.939 18.6549 155.656 10.8336 150.951C3.01225 146.245 0 136.899 0 136.899C0 136.899 9.66866 135.181 17.49 139.887Z" fill="#213A8F"/>
<path d="M162.128 112.851L161.431 112.834L161.27 119.28L161.967 119.298L162.128 112.851Z" fill="#DAE0E3"/>
<path d="M183.825 111.891H183.128V118.339H183.825V111.891Z" fill="#DAE0E3"/>
<path d="M114.111 6.27393H65.3115V6.97107H114.111V6.27393Z" fill="white"/>
<path d="M79.2538 0H78.5566V6.44855H79.2538V0Z" fill="white"/>
<path d="M100.516 0H99.8193V6.44855H100.516V0Z" fill="white"/>
<path d="M194.592 84.0054H193.895V90.4539H194.592V84.0054Z" fill="#DAE0E3"/>
<path d="M215.853 84.0054H215.156V90.4539H215.853V84.0054Z" fill="#DAE0E3"/>
<path d="M208.259 66.9367L159.475 65.713L159.457 66.4099L208.241 67.6336L208.259 66.9367Z" fill="#DAE0E3"/>
<path d="M173.571 59.7902L172.874 59.7727L172.712 66.2192L173.409 66.2367L173.571 59.7902Z" fill="#DAE0E3"/>
<path d="M193.933 58.5596H193.236V65.0081H193.933V58.5596Z" fill="#DAE0E3"/>
<path d="M146.072 140.14L63.5358 140.144L63.5357 139.551L145.478 139.547L145.477 110.748L70.4729 110.752L66.829 103.161L67.3644 102.904L70.8466 110.158L146.071 110.154L146.072 140.14Z" fill="#005168"/>
<path d="M80.2567 148.456C80.2569 151.623 77.6895 154.191 74.5222 154.191C71.355 154.191 68.7873 151.624 68.7872 148.457C68.787 145.289 71.3544 142.722 74.5217 142.722C77.6889 142.721 80.2566 145.289 80.2567 148.456Z" fill="#005168" stroke="#8F8F8F"/>
<path d="M141.714 148.453C141.714 151.62 139.146 154.188 135.979 154.188C132.812 154.188 130.244 151.621 130.244 148.454C130.244 145.286 132.811 142.719 135.979 142.719C139.146 142.718 141.714 145.286 141.714 148.453Z" fill="#005168" stroke="#8F8F8F"/>
<path d="M208.422 19.2822C210.554 19.2822 212.282 17.5542 212.282 15.4226C212.282 13.291 210.554 11.563 208.422 11.563C206.291 11.563 204.562 13.291 204.562 15.4226C204.562 17.5542 206.291 19.2822 208.422 19.2822Z" fill="#005168"/>
<path d="M154.898 100.95L62.1271 100.954L42.0503 35.3418L175.568 35.3352L175.446 35.7212L154.898 100.95ZM62.5663 100.36L154.463 100.356L174.758 35.929L42.8529 35.9355L62.5663 100.36Z" fill="#005168"/>
<path opacity="0.15" d="M147.657 97.5356L66.1728 97.5397L48.5386 39.3493L165.812 39.3435L165.705 39.6861L147.657 97.5356Z" fill="#F4A700"/>
<path d="M177.238 28.8589L176.664 28.7066L180.582 13.938H203.375V14.5319H181.039L177.238 28.8589Z" fill="#2F2E41"/>
<path d="M168.897 55.2271L48.5386 55.2331L48.5386 55.8269L168.897 55.8209L168.897 55.2271Z" fill="#005168"/>
<path d="M162.005 77.104L55.2319 77.1093L55.232 77.703L162.005 77.6978L162.005 77.104Z" fill="#005168"/>
<path d="M109.104 35.6353L108.51 35.6354L108.513 100.655L109.107 100.655L109.104 35.6353Z" fill="#005168"/>
<path d="M135.69 35.6155L131.43 100.634L132.023 100.673L136.282 35.6543L135.69 35.6155Z" fill="#005168"/>
<path d="M81.9378 35.6171L81.3452 35.6558L85.5861 100.675L86.1787 100.637L81.9378 35.6171Z" fill="#005168"/>
<path d="M89.6718 17.7769H40.8721V18.474H89.6718V17.7769Z" fill="white"/>
<path d="M54.8143 11.5029H54.1172V17.9515H54.8143V11.5029Z" fill="white"/>
<path d="M76.078 11.5029H75.3809V17.9515H76.078V11.5029Z" fill="white"/>
</svg>
