<svg width="34" height="34" viewBox="0 0 34 34" fill="none" xmlns="http://www.w3.org/2000/svg">
<path d="M18.9625 3.92291C18.9625 1.75635 18.0843 0 17.001 0C15.9177 0 15.0396 1.75635 15.0396 3.92291C15.0396 6.08948 15.9177 7.84583 17.001 7.84583C18.0843 7.84583 18.9625 6.08948 18.9625 3.92291Z" fill="#F81B24"/>
<path d="M25.2357 6.65567C26.319 4.77937 26.4366 2.81924 25.4985 2.2776C24.5603 1.73596 22.9216 2.81792 21.8383 4.69421C20.7551 6.57051 20.6374 8.53064 21.5756 9.07228C22.5137 9.61392 24.1524 8.53197 25.2357 6.65567Z" fill="#F81B24"/>
<path d="M29.3048 12.1615C31.1811 11.0782 32.2631 9.43955 31.7214 8.5014C31.1798 7.56325 29.2197 7.68091 27.3434 8.76419C25.4671 9.84747 24.3851 11.4862 24.9268 12.4243C25.4684 13.3625 27.4285 13.2448 29.3048 12.1615Z" fill="#F81B24"/>
<path d="M30.0771 18.962C32.2437 18.962 34 18.0838 34 17.0005C34 15.9172 32.2437 15.0391 30.0771 15.0391C27.9105 15.0391 26.1542 15.9172 26.1542 17.0005C26.1542 18.0838 27.9105 18.962 30.0771 18.962Z" fill="#F81B24"/>
<path d="M27.3424 25.2372C29.2187 26.3204 31.1788 26.4381 31.7204 25.4999C32.2621 24.5618 31.1801 22.9231 29.3038 21.8398C27.4275 20.7565 25.4674 20.6389 24.9258 21.577C24.3841 22.5152 25.4661 24.1539 27.3424 25.2372Z" fill="#F81B24"/>
<path d="M21.8414 29.3048C22.9247 31.1811 24.5634 32.2631 25.5015 31.7214C26.4397 31.1798 26.322 29.2197 25.2387 27.3434C24.1555 25.4671 22.5168 24.3851 21.5786 24.9268C20.6405 25.4684 20.7581 27.4285 21.8414 29.3048Z" fill="#F81B24"/>
<path d="M15.0375 30.0771C15.0375 32.2437 15.9157 34 16.999 34C18.0823 34 18.9604 32.2437 18.9604 30.0771C18.9604 27.9105 18.0823 26.1542 16.999 26.1542C15.9157 26.1542 15.0375 27.9105 15.0375 30.0771Z" fill="#F81B24"/>
<path d="M8.76431 27.3443C7.68103 29.2206 7.56337 31.1808 8.50152 31.7224C9.43967 32.264 11.0784 31.1821 12.1617 29.3058C13.2449 27.4295 13.3626 25.4694 12.4244 24.9277C11.4863 24.3861 9.84759 25.468 8.76431 27.3443Z" fill="#F81B24"/>
<path d="M4.69516 21.8385C2.81886 22.9218 1.73691 24.5604 2.27855 25.4986C2.82019 26.4367 4.78032 26.3191 6.65662 25.2358C8.53291 24.1525 9.61487 22.5138 9.07323 21.5757C8.53159 20.6375 6.57146 20.7552 4.69516 21.8385Z" fill="#F81B24"/>
<path d="M3.92291 15.0375C1.75635 15.0375 0 15.9157 0 16.999C0 18.0823 1.75635 18.9604 3.92291 18.9604C6.08948 18.9604 7.84583 18.0823 7.84583 16.999C7.84583 15.9157 6.08948 15.0375 3.92291 15.0375Z" fill="#F81B24"/>
<path d="M6.65664 8.76285C4.78035 7.67956 2.82022 7.56191 2.27858 8.50006C1.73694 9.43821 2.81889 11.0769 4.69519 12.1602C6.57149 13.2435 8.53161 13.3611 9.07325 12.423C9.6149 11.4848 8.53294 9.84613 6.65664 8.76285Z" fill="#F81B24"/>
<path d="M12.1586 4.69467C11.0753 2.81838 9.43663 1.73642 8.49848 2.27806C7.56033 2.8197 7.67798 4.77983 8.76126 6.65613C9.84454 8.53243 11.4832 9.61438 12.4214 9.07274C13.3595 8.5311 13.2419 6.57097 12.1586 4.69467Z" fill="#F81B24"/>
</svg>
