<svg width="71" height="24" viewBox="0 0 71 24" fill="none" xmlns="http://www.w3.org/2000/svg">
<path d="M9.83866 4L0 13.8387L12.258 16.9032L9.83866 4Z" fill="#E94E1B"/>
<path d="M12.7416 16.9032L10.3223 4L19.9996 13.5161L12.7416 16.9032Z" fill="#F39200"/>
<path d="M12.258 17.3873L0 14.3228L9.67737 24.0001L12.258 17.3873Z" fill="#005168"/>
<path d="M10.1621 24L12.7427 17.3871L20.0008 14L10.1621 24Z" fill="#009FE3"/>
<path d="M28.51 17.75C29.14 21.26 32.05 23.3 36.16 23.3C40.06 23.3 43 21.14 43 17.57C43 14.78 41.17 13.07 38.17 12.38L34.81 11.6C33.43 11.27 32.74 10.64 32.74 9.59C32.74 8.27 33.91 7.43 35.65 7.43C37.57 7.43 38.62 8.39 39.04 9.62H42.85C42.25 6.5 39.82 4.28 35.62 4.28C31.75 4.28 28.99 6.62 28.99 9.95C28.99 12.98 31.03 14.39 33.67 14.99L36.97 15.74C38.56 16.1 39.22 16.7 39.22 17.81C39.22 19.28 37.99 20.12 36.13 20.12C34.33 20.12 32.98 19.37 32.47 17.75H28.51ZM55.9675 23V14.45C55.9675 11.24 53.8975 9.29 50.3275 9.29C47.2675 9.29 45.0775 11.15 44.6875 13.58H48.2275C48.5275 12.8 49.1575 12.32 50.2075 12.32C51.7075 12.32 52.3975 13.25 52.3975 14.39V15.38C51.8575 14.99 50.5075 14.6 49.3375 14.6C46.4275 14.6 44.1475 16.34 44.1475 18.89C44.1475 21.68 46.4275 23.24 49.1275 23.24C50.5975 23.24 51.9475 22.73 52.3975 22.28V23H55.9675ZM52.3975 19.34C52.0675 20.06 51.0475 20.51 49.9675 20.51C48.7975 20.51 47.5975 20.03 47.5975 18.86C47.5975 17.72 48.7975 17.21 49.9675 17.21C51.0475 17.21 52.0675 17.66 52.3975 18.38V19.34ZM62.1107 9.59H58.3907V23H62.1107V9.59ZM62.4407 5.72C62.4407 4.49 61.4207 3.59 60.2507 3.59C59.0507 3.59 58.0307 4.49 58.0307 5.72C58.0307 6.98 59.0507 7.85 60.2507 7.85C61.4207 7.85 62.4407 6.98 62.4407 5.72Z" fill="black"/>
</svg>
