<svg width="93" height="91" viewBox="0 0 93 91" fill="none" xmlns="http://www.w3.org/2000/svg">
<path opacity="0.5" d="M58.7136 5.90845H15.9019V63.4375H58.7136V5.90845Z" fill="url(#paint0_linear)"/>
<path d="M57.9335 6.68958H16.4594V62.2119H57.9335V6.68958Z" fill="#F2F2F2"/>
<path d="M33.9637 9.03027H19.6931V9.47611H33.9637V9.03027Z" fill="#E0E0E0"/>
<path opacity="0.7" d="M33.9637 11.0372H19.6931V11.4831H33.9637V11.0372Z" fill="#6C63FF"/>
<path d="M50.3524 9.03027H36.0818V9.47611H50.3524V9.03027Z" fill="#E0E0E0"/>
<path d="M52.5817 21.7412H38.3112V22.187H52.5817V21.7412Z" fill="#E0E0E0"/>
<path d="M52.9168 22.9668H38.6462V23.4126H52.9168V22.9668Z" fill="#E0E0E0"/>
<path d="M53.5861 24.1937H39.3156V24.6396H53.5861V24.1937Z" fill="#E0E0E0"/>
<path d="M52.5817 41.4742H38.3112V41.9201H52.5817V41.4742Z" fill="#E0E0E0"/>
<path d="M52.9168 42.701H38.6462V43.1469H52.9168V42.701Z" fill="#E0E0E0"/>
<path d="M53.5861 43.9266H39.3156V44.3725H53.5861V43.9266Z" fill="#E0E0E0"/>
<path opacity="0.5" d="M34.9666 17.1691H19.8043V32.5547H34.9666V17.1691Z" fill="url(#paint1_linear)"/>
<path d="M34.8236 17.504H19.9V32.2204H34.8236V17.504Z" fill="#F5F5F5"/>
<path opacity="0.5" d="M34.3455 18.3959H20.4263V27.9837H34.3455V18.3959Z" fill="url(#paint2_linear)"/>
<path d="M34.2486 18.5074H20.5212V27.7612H34.2486V18.5074Z" fill="white"/>
<path opacity="0.4" d="M22.0334 20.8485C22.5875 20.8485 23.0368 20.3993 23.0368 19.8452C23.0368 19.291 22.5875 18.8418 22.0334 18.8418C21.4793 18.8418 21.03 19.291 21.03 19.8452C21.03 20.3993 21.4793 20.8485 22.0334 20.8485Z" fill="#6C63FF"/>
<path opacity="0.5" d="M34.9666 36.9033H19.8043V52.289H34.9666V36.9033Z" fill="url(#paint3_linear)"/>
<path d="M34.8236 37.2373H19.9V51.9537H34.8236V37.2373Z" fill="#F5F5F5"/>
<path opacity="0.5" d="M34.3455 38.1299H20.4263V47.7177H34.3455V38.1299Z" fill="url(#paint4_linear)"/>
<path d="M34.2486 38.2408H20.5212V47.4946H34.2486V38.2408Z" fill="white"/>
<path opacity="0.4" d="M22.0334 40.5824C22.5875 40.5824 23.0368 40.1332 23.0368 39.5791C23.0368 39.0249 22.5875 38.5757 22.0334 38.5757C21.4793 38.5757 21.03 39.0249 21.03 39.5791C21.03 40.1332 21.4793 40.5824 22.0334 40.5824Z" fill="#BDBDBD"/>
<path opacity="0.5" d="M33.4002 3.06608L22.1866 59.4917L64.1772 67.8365L75.3907 11.4109L33.4002 3.06608Z" fill="url(#paint5_linear)"/>
<path d="M33.7948 3.94058L22.9724 58.3979L63.6511 66.4821L74.4735 12.0247L33.7948 3.94058Z" fill="white"/>
<path d="M65.1221 12.7788L36.2529 7.04163L36.166 7.47891L65.0352 13.2161L65.1221 12.7788Z" fill="#E0E0E0"/>
<path d="M56.9073 54.1144L28.0381 48.3772L27.9512 48.8145L56.8204 54.5517L56.9073 54.1144Z" fill="#E0E0E0"/>
<path d="M49.8453 55.3249L27.5372 50.8916L27.4503 51.3289L49.7584 55.7622L49.8453 55.3249Z" fill="#E0E0E0"/>
<path opacity="0.7" d="M35.3479 55.059L27.0376 53.4075L26.9507 53.8448L35.261 55.4963L35.3479 55.059Z" fill="#6C63FF"/>
<path opacity="0.7" d="M50.1861 12.4258L35.752 9.55725L35.6651 9.99454L50.0992 12.863L50.1861 12.4258Z" fill="#6C63FF"/>
<path d="M61.2785 17.2438L35.2531 12.0718L35.1662 12.5091L61.1916 17.6811L61.2785 17.2438Z" fill="#E0E0E0"/>
<path opacity="0.7" d="M41.0948 15.8478L34.7528 14.5874L34.6659 15.0247L41.0079 16.285L41.0948 15.8478Z" fill="#3AD29F"/>
<path d="M63.123 22.8397L34.2538 17.1025L34.1669 17.5398L63.0361 23.277L63.123 22.8397Z" fill="#E0E0E0"/>
<path d="M62.6235 25.3557L33.7543 19.6185L33.6674 20.0558L62.5366 25.793L62.6235 25.3557Z" fill="#E0E0E0"/>
<path d="M68.1513 26.8924C66.7757 25.4617 65.1278 24.3206 63.3047 23.5362C61.4815 22.7518 59.5198 22.3401 57.5351 22.3251C55.5504 22.3102 53.5828 22.6924 51.748 23.4492C49.9133 24.206 48.2484 25.3222 46.8514 26.7321C41.2188 32.4105 41.1233 41.6566 46.6328 47.4553C49.0532 50.0029 52.297 51.6119 55.7898 51.9973C59.2826 52.3828 62.7992 51.5198 65.7169 49.5613L76.4752 60.7512C76.6083 60.8896 76.7911 60.9695 76.9832 60.9733C77.1753 60.977 77.361 60.9043 77.4995 60.7712L80.1803 58.1936C80.3187 58.0604 80.3986 57.8776 80.4024 57.6855C80.4062 57.4934 80.3335 57.3077 80.2003 57.1692L69.4449 45.9803C71.5071 43.1541 72.5079 39.6917 72.2713 36.201C72.0347 32.7104 70.576 29.4146 68.1513 26.8924ZM64.8004 44.8834C63.2827 46.3425 61.3664 47.3187 59.2939 47.6887C57.2214 48.0587 55.0857 47.8058 53.1569 46.962C51.2281 46.1183 49.5928 44.7215 48.4578 42.9483C47.3228 41.1752 46.7391 39.1053 46.7805 37.0004C46.8219 34.8955 47.4865 32.8502 48.6903 31.123C49.8941 29.3959 51.583 28.0645 53.5435 27.2972C55.504 26.5299 57.648 26.3611 59.7044 26.8123C61.7607 27.2635 63.6371 28.3143 65.0963 29.8319C66.0652 30.8396 66.8262 32.0283 67.3357 33.3301C67.8452 34.6319 68.0932 36.0213 68.0658 37.419C68.0383 38.8166 67.7358 40.1952 67.1755 41.476C66.6152 42.7567 65.8081 43.9146 64.8004 44.8834Z" fill="url(#paint6_linear)"/>
<path d="M49.5395 34.2485C48.3423 34.2485 48.3404 36.1092 49.5395 36.1092C50.7385 36.1092 50.7385 34.2485 49.5395 34.2485Z" fill="url(#paint7_linear)"/>
<path d="M57.884 28.2881C54.662 28.2156 51.7302 29.8318 50.1712 32.272C49.6623 33.0682 51.1068 33.7718 51.6127 32.9794C52.9035 30.9593 55.356 29.6762 58.0091 29.743C60.7891 29.8127 63.319 31.4032 64.6585 33.6105C65.1663 34.4477 66.4981 33.6868 65.995 32.8543C64.3663 30.1812 61.2121 28.3674 57.884 28.2881Z" fill="url(#paint8_linear)"/>
<path d="M69.319 26.3271C67.9434 24.8964 66.2956 23.7553 64.4724 22.9709C62.6492 22.1865 60.6876 21.7748 58.7029 21.7598C56.7182 21.7449 54.7505 22.1271 52.9158 22.8839C51.081 23.6407 49.4161 24.7569 48.0191 26.1667C42.3865 31.8452 42.2911 41.0913 47.8005 46.89C50.221 49.4374 53.4649 51.0462 56.9577 51.4315C60.4505 51.8168 63.967 50.9537 66.8846 48.9951L77.6419 60.1858C77.7751 60.3243 77.9579 60.4042 78.15 60.408C78.3421 60.4117 78.5278 60.339 78.6663 60.2059L81.347 57.6282C81.4855 57.495 81.5654 57.3123 81.5692 57.1202C81.5729 56.9281 81.5002 56.7424 81.3671 56.6039L70.6088 45.4141C72.6713 42.5883 73.6725 39.1264 73.4366 35.6359C73.2008 32.1455 71.7429 28.8497 69.319 26.3271ZM65.9681 44.3105C64.4504 45.7695 62.5341 46.7458 60.4616 47.1158C58.3891 47.4857 56.2534 47.2329 54.3246 46.3891C52.3958 45.5453 50.7605 44.1485 49.6255 42.3754C48.4905 40.6022 47.9068 38.5324 47.9482 36.4275C47.9896 34.3226 48.6542 32.2773 49.858 30.5501C51.0618 28.8229 52.7508 27.4915 54.7112 26.7242C56.6717 25.9569 58.8157 25.7882 60.8721 26.2394C62.9285 26.6905 64.8049 27.7414 66.264 29.259C67.2329 30.2667 67.9939 31.4553 68.5034 32.7571C69.0129 34.0589 69.261 35.4483 69.2335 36.846C69.206 38.2437 68.9035 39.6222 68.3432 40.903C67.7829 42.1838 66.9759 43.3416 65.9681 44.3105Z" fill="#005470"/>
<path d="M50.7065 33.6823C49.5093 33.6823 49.5074 35.5429 50.7065 35.5429C51.9055 35.5429 51.9055 33.6823 50.7065 33.6823Z" fill="#6C63FF"/>
<path d="M59.0516 27.7232C55.8296 27.6506 52.8978 29.2669 51.3388 31.7071C50.8299 32.5033 52.2744 33.2069 52.7803 32.4145C54.0711 30.3944 56.5236 29.1113 59.1767 29.1781C61.9567 29.2478 64.4866 30.8383 65.8261 33.0455C66.3339 33.8828 67.6657 33.1219 67.1626 32.2894C65.5311 29.6087 62.3806 27.7948 59.0516 27.7232Z" fill="#005470"/>
<path d="M13.1142 56.8597H12.78V58.7548H13.1142V56.8597Z" fill="#47E6B1"/>
<path d="M13.895 57.9739V57.6398H12V57.9739H13.895Z" fill="#47E6B1"/>
<path d="M14.3067 8.28498C14.2145 8.24483 14.1402 8.17214 14.0981 8.08075C14.0561 7.98937 14.0491 7.8857 14.0786 7.7895C14.0832 7.77462 14.0861 7.75924 14.0871 7.74368C14.0902 7.69943 14.0788 7.6554 14.0547 7.61817C14.0306 7.58094 13.9951 7.55251 13.9535 7.53714C13.9119 7.52177 13.8665 7.52028 13.8239 7.5329C13.7814 7.54553 13.7442 7.57158 13.7177 7.60716C13.7085 7.61958 13.7008 7.63304 13.6948 7.64725C13.6546 7.7395 13.5819 7.81375 13.4905 7.85583C13.3992 7.89791 13.2955 7.90489 13.1993 7.87542C13.1844 7.87075 13.169 7.86787 13.1535 7.86683C13.1092 7.8638 13.0652 7.87519 13.028 7.89928C12.9907 7.92337 12.9623 7.95887 12.9469 8.00047C12.9316 8.04206 12.9301 8.08752 12.9427 8.13003C12.9553 8.17254 12.9814 8.20982 13.0169 8.23629C13.0294 8.24548 13.0428 8.25317 13.057 8.2592C13.1493 8.29935 13.2235 8.37205 13.2656 8.46343C13.3077 8.55481 13.3147 8.65849 13.2852 8.75468C13.2805 8.76956 13.2777 8.78495 13.2766 8.80051C13.2736 8.84475 13.285 8.88878 13.3091 8.92602C13.3332 8.96325 13.3687 8.99168 13.4103 9.00705C13.4519 9.02242 13.4973 9.0239 13.5398 9.01128C13.5823 8.99866 13.6196 8.97261 13.6461 8.93703C13.6553 8.92461 13.663 8.91115 13.669 8.89693C13.7091 8.80468 13.7818 8.73044 13.8732 8.68835C13.9646 8.64627 14.0683 8.6393 14.1645 8.66876C14.1794 8.67343 14.1947 8.67632 14.2103 8.67735C14.2545 8.68038 14.2986 8.669 14.3358 8.64491C14.373 8.62082 14.4015 8.58532 14.4168 8.54372C14.4322 8.50212 14.4337 8.45667 14.4211 8.41415C14.4084 8.37164 14.3824 8.33436 14.3468 8.30789C14.3344 8.29871 14.3209 8.29102 14.3067 8.28498Z" fill="#FDD835"/>
<path d="M73.2852 66.2586C73.193 66.2185 73.1187 66.1458 73.0767 66.0544C73.0346 65.963 73.0276 65.8593 73.0571 65.7631C73.0617 65.7483 73.0646 65.7329 73.0657 65.7173C73.0687 65.6731 73.0573 65.629 73.0332 65.5918C73.0091 65.5546 72.9736 65.5261 72.932 65.5108C72.8904 65.4954 72.845 65.4939 72.8025 65.5065C72.7599 65.5192 72.7227 65.5452 72.6962 65.5808C72.687 65.5932 72.6793 65.6067 72.6733 65.6209C72.6331 65.7131 72.5604 65.7874 72.4691 65.8295C72.3777 65.8715 72.274 65.8785 72.1778 65.8491C72.1629 65.8444 72.1475 65.8415 72.132 65.8405C72.0877 65.8374 72.0437 65.8488 72.0065 65.8729C71.9692 65.897 71.9408 65.9325 71.9254 65.9741C71.9101 66.0157 71.9086 66.0611 71.9212 66.1037C71.9338 66.1462 71.9599 66.1835 71.9955 66.2099C72.0079 66.2191 72.0213 66.2268 72.0356 66.2328C72.1278 66.273 72.2021 66.3457 72.2441 66.4371C72.2862 66.5284 72.2932 66.6321 72.2637 66.7283C72.2591 66.7432 72.2562 66.7586 72.2551 66.7741C72.2521 66.8184 72.2635 66.8624 72.2876 66.8996C72.3117 66.9369 72.3472 66.9653 72.3888 66.9807C72.4304 66.9961 72.4758 66.9975 72.5183 66.9849C72.5608 66.9723 72.5981 66.9462 72.6246 66.9107C72.6338 66.8982 72.6415 66.8848 72.6475 66.8706C72.6877 66.7783 72.7604 66.7041 72.8517 66.662C72.9431 66.6199 73.0468 66.6129 73.143 66.6424C73.1579 66.6471 73.1733 66.65 73.1888 66.651C73.2331 66.654 73.2771 66.6426 73.3143 66.6185C73.3516 66.5944 73.38 66.5589 73.3953 66.5174C73.4107 66.4758 73.4122 66.4303 73.3996 66.3878C73.387 66.3453 73.3609 66.308 73.3253 66.2815C73.3129 66.2723 73.2995 66.2647 73.2852 66.2586Z" fill="#FDD835"/>
<path d="M31.8455 1.33846C32.2151 1.33846 32.5147 1.03884 32.5147 0.669231C32.5147 0.299625 32.2151 0 31.8455 0C31.4759 0 31.1763 0.299625 31.1763 0.669231C31.1763 1.03884 31.4759 1.33846 31.8455 1.33846Z" fill="#F55F44"/>
<path d="M79.7852 9.69967C80.1548 9.69967 80.4544 9.40004 80.4544 9.03044C80.4544 8.66083 80.1548 8.36121 79.7852 8.36121C79.4156 8.36121 79.116 8.66083 79.116 9.03044C79.116 9.40004 79.4156 9.69967 79.7852 9.69967Z" fill="#F55F44"/>
<path d="M75.9952 29.6562C76.3648 29.6562 76.6644 29.3566 76.6644 28.987C76.6644 28.6174 76.3648 28.3177 75.9952 28.3177C75.6256 28.3177 75.3259 28.6174 75.3259 28.987C75.3259 29.3566 75.6256 29.6562 75.9952 29.6562Z" fill="#4D8AF0"/>
<path d="M7.7 76.404H6.65V82.942L2.072 76.404H1.022V85H2.086V78.168L6.888 85H7.7V76.404ZM14.9247 81.892C14.9247 79.988 13.7627 78.658 12.0687 78.658C10.3607 78.658 9.21266 79.988 9.21266 81.892C9.21266 83.796 10.3607 85.126 12.0687 85.126C13.7627 85.126 14.9247 83.796 14.9247 81.892ZM13.8607 81.892C13.8607 83.25 13.1887 84.202 12.0687 84.202C10.9487 84.202 10.2767 83.25 10.2767 81.892C10.2767 80.534 10.9487 79.582 12.0687 79.582C13.1887 79.582 13.8607 80.534 13.8607 81.892ZM22.628 78.756C22.516 78.7 22.292 78.658 22.026 78.658C21.34 78.658 20.752 79.064 20.486 79.596V78.784H19.436V85H20.486V80.828C20.696 80.1 21.27 79.666 21.928 79.666C22.194 79.666 22.46 79.722 22.628 79.834V78.756ZM27.6764 83.138C27.5084 83.838 26.9344 84.23 26.1644 84.23C25.1144 84.23 24.3724 83.418 24.3584 82.088H28.7544V81.71C28.7544 79.904 27.8444 78.658 26.1364 78.658C24.4424 78.658 23.3084 80.044 23.3084 81.906C23.3084 83.824 24.4704 85.126 26.1644 85.126C27.5644 85.126 28.4464 84.314 28.6704 83.138H27.6764ZM26.1504 79.554C27.1864 79.554 27.6764 80.366 27.6904 81.29H24.3864C24.5404 80.198 25.2124 79.554 26.1504 79.554ZM29.6641 83.292C29.8601 84.44 30.8541 85.126 32.2121 85.126C33.5421 85.126 34.5221 84.426 34.5221 83.25C34.5221 82.382 34.0041 81.794 32.9401 81.514L31.7361 81.22C31.1481 81.052 30.8681 80.856 30.8681 80.436C30.8681 79.834 31.4421 79.54 32.0581 79.54C32.8141 79.54 33.2481 79.862 33.4301 80.422H34.4801C34.2561 79.33 33.4441 78.658 32.0721 78.658C30.8121 78.658 29.8461 79.386 29.8461 80.492C29.8461 81.458 30.4621 81.906 31.3441 82.13L32.5761 82.452C33.2201 82.62 33.5001 82.886 33.5001 83.32C33.5001 83.95 32.9681 84.244 32.2261 84.244C31.4981 84.244 30.9521 83.936 30.7561 83.292H29.6641ZM40.935 78.784H39.871V82.998C39.647 83.67 39.045 84.16 38.317 84.16C37.379 84.16 36.959 83.558 36.959 82.69V78.784H35.895V82.858C35.895 84.216 36.651 85.126 38.065 85.126C38.863 85.126 39.521 84.706 39.871 84.216V85H40.935V78.784ZM43.8513 75.9H42.8013V85H43.8513V75.9ZM46.0211 83.432C46.0211 84.58 46.7211 85.126 47.7291 85.126C48.1071 85.126 48.4711 85.042 48.7091 84.916V83.936C48.4991 84.076 48.1911 84.188 47.8971 84.188C47.3651 84.188 47.0711 83.922 47.0711 83.32V79.68H48.5691V78.784H47.0711V77.146H46.0211V78.784H45.0131V79.68H46.0211V83.432ZM49.6114 83.292C49.8074 84.44 50.8014 85.126 52.1594 85.126C53.4894 85.126 54.4694 84.426 54.4694 83.25C54.4694 82.382 53.9514 81.794 52.8874 81.514L51.6834 81.22C51.0954 81.052 50.8154 80.856 50.8154 80.436C50.8154 79.834 51.3894 79.54 52.0054 79.54C52.7614 79.54 53.1954 79.862 53.3774 80.422H54.4274C54.2034 79.33 53.3914 78.658 52.0194 78.658C50.7594 78.658 49.7934 79.386 49.7934 80.492C49.7934 81.458 50.4094 81.906 51.2914 82.13L52.5234 82.452C53.1674 82.62 53.4474 82.886 53.4474 83.32C53.4474 83.95 52.9154 84.244 52.1734 84.244C51.4454 84.244 50.8994 83.936 50.7034 83.292H49.6114ZM62.1241 75.914C61.8861 75.816 61.6481 75.774 61.3121 75.774C60.2201 75.774 59.4081 76.502 59.4081 77.748V78.784H58.3581V79.68H59.4081V85H60.4441V79.68H61.8441V78.784H60.4441V77.832C60.4441 77.09 60.8501 76.698 61.4661 76.698C61.6901 76.698 61.9281 76.74 62.1241 76.866V75.914ZM68.2313 81.892C68.2313 79.988 67.0693 78.658 65.3753 78.658C63.6673 78.658 62.5193 79.988 62.5193 81.892C62.5193 83.796 63.6673 85.126 65.3753 85.126C67.0693 85.126 68.2313 83.796 68.2313 81.892ZM67.1673 81.892C67.1673 83.25 66.4953 84.202 65.3753 84.202C64.2553 84.202 63.5833 83.25 63.5833 81.892C63.5833 80.534 64.2553 79.582 65.3753 79.582C66.4953 79.582 67.1673 80.534 67.1673 81.892ZM74.6088 78.784H73.5448V82.998C73.3208 83.67 72.7188 84.16 71.9908 84.16C71.0528 84.16 70.6328 83.558 70.6328 82.69V78.784H69.5688V82.858C69.5688 84.216 70.3248 85.126 71.7388 85.126C72.5368 85.126 73.1948 84.706 73.5448 84.216V85H74.6088V78.784ZM76.4751 85H77.5251V80.786C77.7491 80.114 78.3791 79.624 79.1071 79.624C80.0451 79.624 80.4791 80.226 80.4791 81.094V85H81.5431V80.926C81.5431 79.568 80.7731 78.658 79.3591 78.658C78.5611 78.658 77.8891 79.078 77.5251 79.568V78.784H76.4751V85ZM87.4267 85H88.4907V75.9H87.4267V79.512C87.1187 79.064 86.4467 78.658 85.6767 78.658C83.8567 78.658 82.8767 80.142 82.8767 81.892C82.8767 83.656 83.8567 85.126 85.6767 85.126C86.4467 85.126 87.1187 84.72 87.4267 84.272V85ZM87.4267 83.152C87.1047 83.796 86.4887 84.174 85.8307 84.174C84.6407 84.174 83.9407 83.208 83.9407 81.892C83.9407 80.576 84.6407 79.61 85.8307 79.61C86.4887 79.61 87.1047 79.988 87.4267 80.632V83.152ZM90.0861 84.314C90.0861 84.748 90.4221 85.07 90.8281 85.07C91.2481 85.07 91.5841 84.748 91.5841 84.314C91.5841 83.88 91.2481 83.544 90.8281 83.544C90.4221 83.544 90.0861 83.88 90.0861 84.314ZM90.4501 82.298H91.2061L91.4581 76.404H90.2121L90.4501 82.298Z" fill="#CDD1D3"/>
<defs>
<linearGradient id="paint0_linear" x1="37.3077" y1="63.4375" x2="37.3077" y2="5.90845" gradientUnits="userSpaceOnUse">
<stop stop-color="#808080" stop-opacity="0.25"/>
<stop offset="0.54" stop-color="#808080" stop-opacity="0.12"/>
<stop offset="1" stop-color="#808080" stop-opacity="0.1"/>
</linearGradient>
<linearGradient id="paint1_linear" x1="4180.93" y1="6314.82" x2="4180.93" y2="3835.27" gradientUnits="userSpaceOnUse">
<stop stop-color="#808080" stop-opacity="0.25"/>
<stop offset="0.54" stop-color="#808080" stop-opacity="0.12"/>
<stop offset="1" stop-color="#808080" stop-opacity="0.1"/>
</linearGradient>
<linearGradient id="paint2_linear" x1="3840.42" y1="3483.83" x2="3840.42" y2="2520.92" gradientUnits="userSpaceOnUse">
<stop stop-color="#808080" stop-opacity="0.25"/>
<stop offset="0.54" stop-color="#808080" stop-opacity="0.12"/>
<stop offset="1" stop-color="#808080" stop-opacity="0.1"/>
</linearGradient>
<linearGradient id="paint3_linear" x1="4180.93" y1="9514.92" x2="4180.93" y2="7035.37" gradientUnits="userSpaceOnUse">
<stop stop-color="#808080" stop-opacity="0.25"/>
<stop offset="0.54" stop-color="#808080" stop-opacity="0.12"/>
<stop offset="1" stop-color="#808080" stop-opacity="0.1"/>
</linearGradient>
<linearGradient id="paint4_linear" x1="3840.42" y1="5485.47" x2="3840.42" y2="4522.56" gradientUnits="userSpaceOnUse">
<stop stop-color="#808080" stop-opacity="0.25"/>
<stop offset="0.54" stop-color="#808080" stop-opacity="0.12"/>
<stop offset="1" stop-color="#808080" stop-opacity="0.1"/>
</linearGradient>
<linearGradient id="paint5_linear" x1="32495.8" y1="39894.3" x2="37524.4" y2="14590.8" gradientUnits="userSpaceOnUse">
<stop stop-color="#808080" stop-opacity="0.25"/>
<stop offset="0.54" stop-color="#808080" stop-opacity="0.12"/>
<stop offset="1" stop-color="#808080" stop-opacity="0.1"/>
</linearGradient>
<linearGradient id="paint6_linear" x1="61.4828" y1="60.9736" x2="61.4828" y2="22.3253" gradientUnits="userSpaceOnUse">
<stop stop-color="#B3B3B3" stop-opacity="0.25"/>
<stop offset="0.54" stop-color="#B3B3B3" stop-opacity="0.1"/>
<stop offset="1" stop-color="#B3B3B3" stop-opacity="0.05"/>
</linearGradient>
<linearGradient id="paint7_linear" x1="49.5395" y1="36.1083" x2="49.5395" y2="34.2485" gradientUnits="userSpaceOnUse">
<stop stop-opacity="0.12"/>
<stop offset="0.55" stop-opacity="0.09"/>
<stop offset="1" stop-opacity="0.02"/>
</linearGradient>
<linearGradient id="paint8_linear" x1="12482.8" y1="2785.48" x2="12482.8" y2="2446.58" gradientUnits="userSpaceOnUse">
<stop stop-opacity="0.12"/>
<stop offset="0.55" stop-opacity="0.09"/>
<stop offset="1" stop-opacity="0.02"/>
</linearGradient>
</defs>
</svg>
