<svg width="184" height="143" viewBox="0 0 184 143" fill="none" xmlns="http://www.w3.org/2000/svg">
<g clip-path="url(#clip0)">
<path opacity="0.1" d="M64.5444 140.23C82.2707 140.23 96.6406 137.526 96.6406 134.191C96.6406 130.856 82.2707 128.152 64.5444 128.152C46.8182 128.152 32.4482 130.856 32.4482 134.191C32.4482 137.526 46.8182 140.23 64.5444 140.23Z" fill="#6C63FF"/>
<path opacity="0.1" d="M106.904 20.1676C95.1082 19.7621 83.8736 15.9786 73.1457 11.8403C62.4178 7.70198 51.792 3.11834 40.2785 0.926079C32.8733 -0.484134 24.4036 -0.685076 18.4382 3.25411C12.6951 7.05571 10.8397 13.5999 9.84273 19.677C9.09181 24.2498 8.65074 29.0634 10.7066 33.3447C12.1356 36.3172 14.669 38.8154 16.4224 41.663C22.5226 51.5689 18.2103 63.7847 11.6015 73.457C8.50311 77.9936 4.90345 82.3274 2.51036 87.1519C0.117266 91.9763 -0.98906 97.523 1.10512 102.458C3.17925 107.346 8.124 111.01 13.4807 113.589C24.3598 118.83 37.1746 120.329 49.6796 121.18C77.3523 123.059 105.171 122.246 132.916 121.43C143.185 121.129 153.497 120.823 163.598 119.246C169.208 118.37 174.999 116.98 179.072 113.624C184.241 109.364 185.523 102.152 182.058 96.8115C176.247 87.8506 160.186 85.6258 156.12 76.0114C153.886 70.7181 156.18 64.8238 159.43 59.9161C166.4 49.3857 178.081 40.1478 178.695 28.113C179.118 19.8472 173.502 11.5688 164.819 7.65673C155.719 3.55643 143.098 4.07236 136.387 10.8591C129.47 17.8396 117.32 20.5279 106.904 20.1676Z" fill="#E94E1B"/>
<path d="M97.5312 65.4853L91.9485 61.7471L94.7645 57.5834L80.0195 56.4158L74.7212 60.4853L68.0887 56.7923L62.5571 57.4531L62.4915 56.0049C62.423 54.4951 62.2703 52.9902 62.034 51.4972C62.0577 51.0447 62.0741 50.5251 62.0722 49.9603C62.0722 47.5798 61.7478 44.4244 60.3225 42.3209L60.6506 39.3919L57.9896 36.2691C58.4169 35.4236 58.9042 34.6094 59.4477 33.8325C59.5388 33.7021 59.6299 33.5754 59.7284 33.4523C63.1822 33.2043 65.907 30.3839 65.907 26.9353C65.907 26.776 65.907 26.6167 65.8888 26.4592C65.8888 26.3958 65.876 26.3306 65.8688 26.2673C66.2059 26.4483 66.5468 26.6293 66.8876 26.8104C66.9514 26.9009 67.0243 26.9914 67.1045 27.0982L67.1209 27.1181L67.223 27.243L67.2558 27.281C67.2922 27.3245 67.3305 27.3661 67.3688 27.4096L67.3943 27.4385C67.4909 27.5453 67.5929 27.654 67.7023 27.7608C67.7153 27.7713 67.7275 27.7828 67.7388 27.7952L67.8755 27.9219L67.9137 27.9563C68.0304 28.0595 68.1543 28.159 68.2782 28.2532L68.3183 28.2821L68.4751 28.3889L68.5261 28.4215C68.5863 28.4577 68.6482 28.4957 68.7084 28.5301L68.7303 28.5428C68.8013 28.5808 68.8742 28.617 68.9471 28.6514L68.9836 28.6659C69.0456 28.6925 69.1063 28.7178 69.1659 28.7419L69.2224 28.7618C69.2862 28.7836 69.3481 28.8035 69.4137 28.8216L69.4538 28.8324C69.534 28.8524 69.6142 28.8687 69.6962 28.8813H69.7054C69.7826 28.8937 69.8605 28.9016 69.9386 28.9049H69.9915C70.0613 28.9085 70.1313 28.9085 70.2011 28.9049H70.2467C70.3341 28.8999 70.4211 28.8896 70.5073 28.8741C70.9151 28.8208 71.3067 28.6813 71.6556 28.465C71.7444 28.406 71.8231 28.3332 71.8888 28.2495C72.2534 27.7752 71.8524 27.2557 71.8524 27.2557C71.7102 26.919 70.788 26.6818 70.788 26.6818C70.788 26.6818 67.8718 25.4726 67.8718 24.5095C67.8718 23.5464 67.1428 18.55 59.6172 17.4077C59.6172 17.4077 54.7217 17.1344 53.3456 19.7376L53.3164 20.0417C52.9118 20.2933 52.5764 20.7984 52.1773 20.9468C52.0048 20.9836 51.8385 21.0446 51.6834 21.1279V21.0935C51.6373 21.1335 51.5995 21.1821 51.5722 21.2365C51.4864 21.4059 51.435 21.5904 51.4209 21.7796C51.3798 22.0106 51.2991 22.2329 51.1821 22.4367C51.1495 22.4946 51.113 22.5503 51.0728 22.6032L51.0418 22.6521C51.2534 22.6685 51.4659 22.6344 51.6615 22.5526C51.6307 22.8004 51.5695 23.0436 51.4792 23.2767C51.5951 23.2804 51.7096 23.251 51.8091 23.1919C51.9086 23.1329 51.989 23.0467 52.0406 22.9436V22.9291L52.0643 22.8965C52.1101 22.8127 52.1479 22.7248 52.1773 22.634L52.1572 22.6557C52.1937 22.5381 52.2265 22.4186 52.2666 22.3027C52.285 22.2375 52.3152 22.1761 52.3559 22.1217C52.4045 22.073 52.464 22.0363 52.5296 22.0146C52.5951 21.9929 52.6648 21.9868 52.7332 21.9968L52.6585 23.5663H52.6913C52.6474 23.6805 52.5937 23.7907 52.5309 23.8958C52.2721 24.3122 51.8018 24.5964 51.6287 25.0526C51.554 25.2726 51.5255 25.5055 51.5448 25.7369C51.5448 25.8726 51.5612 26.0102 51.5722 26.146V26.1351C51.5977 26.4972 51.605 26.8411 51.4081 27.1326C51.2733 27.3317 51.0564 27.482 50.9817 27.7083C50.961 27.7713 50.9517 27.8375 50.9543 27.9038C50.9689 28.1022 51.0106 28.2976 51.0783 28.4849C51.079 28.4813 51.079 28.4776 51.0783 28.474C51.1237 28.6117 51.1343 28.7585 51.1092 28.9012C51.0272 29.2633 50.5843 29.5656 50.6062 29.9114C50.6049 29.9569 50.6117 30.0022 50.6262 30.0453C50.7115 30.2142 50.859 30.3439 51.0382 30.4074C51.3192 30.5661 51.6419 30.6368 51.964 30.6101C52.0848 30.5885 52.2015 30.5488 52.3103 30.4925C52.1828 30.7839 52.0515 31.0718 51.9185 31.3451C51.8984 31.3886 51.8766 31.432 51.8547 31.4755C51.8547 31.4755 50.7283 30.7278 50.0886 32.2521C49.9018 32.5688 49.7682 32.9137 49.6931 33.2731C49.661 33.4168 49.6159 33.5574 49.5582 33.6931C49.2742 34.1706 48.8491 34.5498 48.3407 34.7792C47.0357 35.373 41.7647 41.9027 41.6717 43.5935C41.6261 44.2535 41.5138 44.9073 41.3364 45.545C40.9215 47.0467 40.8148 48.616 41.0229 50.1594C41.088 50.6583 41.1959 51.1506 41.3455 51.6312C41.905 53.3202 42.2787 56.4719 42.2787 56.4719L42.8838 61.9426C42.8613 62.6977 42.8942 63.4533 42.9822 64.2037C42.3643 64.9042 39.8838 67.8242 40.8315 68.6189C41.5606 69.2453 42.8364 69.1421 43.5527 69.0136C42.9494 70.4962 41.9998 73.0741 41.8741 74.8445C41.6918 77.464 42.1857 80.9343 42.9676 82.2667C43.7495 83.5991 46.3559 87.0169 46.3559 87.0169C46.3559 87.0169 46.2337 91.7055 47.1651 93.409C48.0965 95.1125 48.4719 98.6462 48.4719 98.6462C48.4719 98.6462 49.3413 101.63 48.9057 102.727C48.4701 103.824 49.7131 104.736 48.4081 105.466C47.1031 106.195 45.4336 122.638 45.4336 122.638C45.4336 122.638 44.7611 133.415 45.4336 133.963C45.4696 133.989 45.5081 134.011 45.5484 134.03V137.651C45.5484 137.651 45.0819 138.411 46.9792 138.565C48.2787 138.668 51.9622 138.902 54.1475 139.037L55.8407 139.142C55.8407 139.142 59.8505 139.935 61.6221 139.142C63.3936 138.349 66.534 138.367 66.0674 136.273C66.0056 135.988 65.9227 135.708 65.8195 135.435C65.3074 134.135 64.438 133.987 62.8359 133.625C62.743 133.605 62.6537 133.587 62.5716 133.572C60.8839 133.281 60.3298 134.061 59.3839 133.045C58.5619 132.167 55.9446 131.184 55.0534 130.873C55.0752 130.808 55.1026 130.744 55.1244 130.677C54.8721 130.635 54.6373 130.521 54.4483 130.35L56.8632 130.502L58.3013 130.59C58.3013 130.59 61.7095 131.266 63.2223 130.59C64.7351 129.915 67.3961 129.933 66.9988 128.154C66.9464 127.911 66.8764 127.673 66.7892 127.441C66.3536 126.336 65.6136 126.215 64.2521 125.909C64.1737 125.893 64.1008 125.877 64.0279 125.864C62.5935 125.616 62.1233 126.278 61.3195 125.417C60.6306 124.682 58.4562 123.858 57.6743 123.577C57.6743 123.176 57.1275 122.604 56.783 122.03C56.3784 121.36 57.1257 119.016 57.1257 119.016L57.5522 109.289C57.7146 109.217 57.8864 109.168 58.0625 109.144C58.0625 109.144 59.9908 107.316 59.5552 105.368C59.4665 104.779 59.4202 104.184 59.4167 103.588C60.051 103.004 60.924 102.14 61.1719 101.608C61.5765 100.741 61.1719 96.539 61.1719 96.539V80.4727L64.3979 80.7967L67.325 81.0954L68.2163 81.186L71.1434 81.4792L77.8707 82.1545L83.9327 81.014L86.5554 80.5216L91.9485 79.5078V66.4013L97.5312 65.4853ZM53.1305 22.0547L52.7551 22.0149C52.879 22.0203 53.0102 22.0439 53.1305 22.0547Z" fill="url(#paint0_linear)"/>
<path d="M84.4467 73.9955C82.6241 76.586 76.0718 75.2138 76.0718 75.2138L70.994 70.4944L70.3105 69.8554L71.457 67.4368C71.457 67.4368 71.8215 67.5364 72.4466 67.7138C75.7292 68.6606 85.985 71.8177 84.4467 73.9955Z" fill="#EFB7B9"/>
<path opacity="0.1" d="M72.443 67.7138C72.2188 68.4886 71.6046 69.649 70.994 70.4944L70.3105 69.8554L71.457 67.4368C71.457 67.4368 71.8251 67.5364 72.443 67.7138Z" fill="black"/>
<path d="M55.0283 40.44C55.0283 40.44 50.3479 42.5019 50.5775 47.5653C50.7428 50.8274 51.1006 54.077 51.6492 57.2974C51.6492 57.2974 50.6923 64.9169 54.6766 66.8811C58.6608 68.8452 62.3479 70.46 62.3479 70.46C62.3479 70.46 68.5813 71.1262 69.3559 71.4014C70.1305 71.6765 72.5509 67.4694 72.1044 66.8141C71.6578 66.1588 65.9367 64.7848 65.2076 63.6913C64.4786 62.5979 62.7927 61.9227 62.7927 61.9227C62.7927 61.9227 61.0521 60.8763 60.9336 59.9314C60.8151 58.9864 61.2744 58.2822 61.3911 57.8676C61.5077 57.4531 61.803 53.4505 61.803 53.4505C61.803 53.4505 63.7678 39.2036 55.0283 40.44Z" fill="#DCE6F2"/>
<path opacity="0.1" d="M58.1173 57.0892C58.1173 57.0892 51.6963 58.1573 52.3178 60.3894C52.3178 60.3894 54.6489 57.9799 58.1173 57.0892Z" fill="black"/>
<path opacity="0.1" d="M58.1665 57.9926C58.1665 57.9926 54.6361 60.8546 55.3269 61.0012C56.0177 61.1479 58.1665 57.9926 58.1665 57.9926Z" fill="black"/>
<path opacity="0.1" d="M59.864 58.99C59.864 58.99 58.9181 60.9143 59.4995 60.784C60.0809 60.6537 59.864 58.99 59.864 58.99Z" fill="black"/>
<path opacity="0.1" d="M72.6804 67.9183L72.2904 67.8079C72.4016 67.4459 72.4326 67.1526 72.3414 67.0168C71.8949 66.3615 66.1774 64.9893 65.4501 63.8941C64.7229 62.7989 63.0352 62.1254 63.0352 62.1254C63.0352 62.1254 61.2946 61.0791 61.1761 60.1341C61.0576 59.1891 61.5169 58.4849 61.6336 58.0704C61.7502 57.6558 62.0455 53.6515 62.0455 53.6515C62.0455 53.6515 64.0048 39.4063 55.2654 40.6428C55.2654 40.6428 50.5849 42.7065 50.8127 47.7699C50.978 51.032 51.3365 54.2816 51.8863 57.502C51.8863 57.502 50.9294 65.1214 54.9136 67.0856C58.8978 69.0498 62.585 70.6646 62.585 70.6646C62.585 70.6646 68.8165 71.3289 69.5929 71.6059C69.8864 71.7109 70.4168 71.1696 70.9362 70.4256L71.2315 70.6989L76.3093 75.4166C76.3093 75.4166 82.8615 76.7906 84.6842 74.2C86.2243 72.0205 75.9703 68.8633 72.6804 67.9183Z" fill="black"/>
<path d="M52.3345 21.4356C52.1561 21.4703 51.9852 21.5358 51.8297 21.6293C51.6474 21.7796 51.6474 22.0366 51.6018 22.2611C51.5483 22.5734 51.4236 22.8693 51.2373 23.1264C51.4447 23.1415 51.6527 23.1074 51.8442 23.0268C51.813 23.2746 51.7518 23.5178 51.662 23.751C51.7755 23.7538 51.8875 23.7241 51.9845 23.6653C52.0815 23.6066 52.1594 23.5213 52.2088 23.4197C52.3052 23.2157 52.3815 23.0029 52.4366 22.7843C52.4537 22.7189 52.4834 22.6574 52.5241 22.6032C52.6917 22.4059 53.0034 22.4946 53.2622 22.52C53.4776 22.538 53.6939 22.4985 53.8888 22.4056C54.0836 22.3126 54.2499 22.1696 54.3704 21.9914C54.6456 21.5768 54.662 20.516 54.0059 20.4037C53.3206 20.2915 52.8941 21.2292 52.3345 21.4356Z" fill="#965D7B"/>
<g opacity="0.1">
<path opacity="0.1" d="M51.8114 21.852C51.8278 21.7633 51.8387 21.6709 51.8588 21.5822C51.6856 21.7325 51.6765 21.9877 51.631 22.214C51.608 22.3446 51.572 22.4725 51.5234 22.596C51.6669 22.3688 51.7647 22.1161 51.8114 21.852Z" fill="black"/>
<path opacity="0.1" d="M51.8698 23.3473C51.9605 23.1143 52.0217 22.8711 52.052 22.6231C51.8695 22.6994 51.6719 22.7335 51.4742 22.7227C51.4167 22.85 51.3465 22.9713 51.2646 23.0848C51.4713 23.1006 51.6788 23.0671 51.8698 22.987C51.8395 23.235 51.7783 23.4782 51.6875 23.7111C51.801 23.7138 51.9129 23.6839 52.0099 23.6252C52.1068 23.5665 52.1847 23.4813 52.2343 23.3798C52.2797 23.2976 52.3163 23.2108 52.3436 23.121C52.2902 23.1952 52.2187 23.2549 52.1359 23.2944C52.0531 23.334 51.9615 23.3521 51.8698 23.3473Z" fill="black"/>
<path opacity="0.1" d="M53.4698 22.1163C53.211 22.0909 52.8975 22.0022 52.7299 22.1996C52.6899 22.2542 52.6603 22.3155 52.6424 22.3806C52.626 22.4276 52.6114 22.4765 52.5986 22.5254C52.7718 22.3896 53.0525 22.462 53.2876 22.4856C53.5029 22.503 53.719 22.4633 53.9138 22.3704C54.1085 22.2775 54.2748 22.1348 54.3957 21.957C54.451 21.8691 54.4922 21.7732 54.5178 21.6728C54.393 21.8262 54.2322 21.9469 54.0495 22.0242C53.8668 22.1015 53.6677 22.1331 53.4698 22.1163Z" fill="black"/>
</g>
<path d="M57.8202 36.3868L60.5997 39.7068L60.237 43.0577L56.8779 37.835L57.8202 36.3868Z" fill="#DCE6F2"/>
<path opacity="0.1" d="M60.5979 39.7068L60.257 42.8585L60.2352 43.0577L57.2042 38.3437L56.8779 37.835L56.9727 37.6884L57.8184 36.3868L58.0061 36.6112L60.5979 39.7068Z" fill="black"/>
<path d="M62.0419 31.8918C61.1014 32.1597 60.2028 33.0794 59.4209 34.1963C58.8925 34.967 58.4198 35.774 58.0066 36.6112C57.7496 37.1217 57.5236 37.6123 57.3359 38.0395L57.2046 38.3437C56.8875 39.0877 56.7107 39.5855 56.7107 39.5855C56.7107 39.5855 49.5114 34.209 50.6505 33.8469C51.0333 33.7256 51.5363 32.911 52.0339 31.8846L52.0959 31.7542C52.4112 31.0953 52.721 30.3603 52.9962 29.6688C53.5594 28.2477 53.9768 27.0131 53.9768 27.0131C53.9768 27.0131 64.9125 31.0772 62.0419 31.8918Z" fill="#EFB7B9"/>
<path d="M66.3486 26.7108C66.3486 26.7108 68.0109 29.6978 70.2436 29.2904C72.4763 28.8831 71.5577 27.6865 71.5577 27.6865L66.3486 26.7108Z" fill="#444053"/>
<path d="M63.1281 130.105C61.6555 130.773 58.3255 130.105 58.3255 130.105L56.9221 130.018C55.0995 129.903 52.0485 129.707 50.9695 129.62C49.3947 129.492 49.7811 128.851 49.7811 128.851V124.979L57.4215 123.056C57.4215 123.056 60.4416 124.082 61.2691 124.979C62.0546 125.833 62.5139 125.176 63.9155 125.422C63.9848 125.435 64.0577 125.449 64.1342 125.467C65.4647 125.77 66.1865 125.889 66.613 126.984C66.6987 127.214 66.7675 127.45 66.8189 127.69C67.2126 129.454 64.599 129.441 63.1281 130.105Z" fill="#A36468"/>
<path opacity="0.1" d="M66.613 126.984C66.3392 127.154 66.0514 127.301 65.7527 127.422C64.7502 127.877 63.797 128.431 62.7836 128.86C61.7703 129.289 60.6785 129.595 59.5813 129.513C59.0072 129.472 58.4203 129.332 57.8717 129.495C57.5324 129.625 57.2129 129.801 56.9221 130.018C55.0995 129.903 52.0485 129.707 50.9695 129.62C49.3947 129.492 49.7811 128.851 49.7811 128.851V128.398C49.8376 128.398 49.9014 128.382 49.9743 128.376C50.3515 128.37 50.7271 128.426 51.0861 128.541C51.8771 128.755 52.6645 128.965 53.4555 129.175C53.5206 128.931 53.6349 128.703 53.7916 128.504C53.9483 128.306 54.144 128.141 54.3668 128.02C54.8183 127.782 55.325 127.666 55.8358 127.685C57.0625 127.701 58.2235 128.279 59.4483 128.337C59.7907 128.368 60.1354 128.311 60.4489 128.17C60.6166 128.087 60.7642 127.966 60.9282 127.873C61.1907 127.747 61.4681 127.654 61.7539 127.596C62.5571 127.398 63.3456 127.145 64.1142 126.84C64.3329 126.754 64.588 126.601 64.5589 126.369C64.5206 126.061 64.034 126.025 63.9064 125.743C63.8839 125.692 63.8735 125.636 63.876 125.581C63.8785 125.525 63.8939 125.471 63.921 125.422C63.9902 125.435 64.0631 125.449 64.1397 125.467C65.4647 125.77 66.1865 125.889 66.613 126.984Z" fill="black"/>
<path d="M61.5716 138.578C59.8401 139.363 55.9215 138.578 55.9215 138.578L54.2721 138.482C52.136 138.346 48.5381 138.119 47.2678 138.013C45.4142 137.861 45.8698 137.108 45.8698 137.108V132.544L54.8608 130.281C54.8608 130.281 58.4149 131.488 59.3881 132.544C60.3122 133.549 60.8462 132.776 62.503 133.065C62.585 133.08 62.6707 133.098 62.76 133.118C64.3256 133.48 65.1749 133.615 65.6761 134.904C65.7776 135.175 65.8586 135.453 65.9185 135.735C66.3706 137.81 63.3031 137.794 61.5716 138.578Z" fill="#A36468"/>
<path opacity="0.1" d="M65.6725 134.904C65.3504 135.104 65.0121 135.277 64.6609 135.42C63.4817 135.954 62.359 136.606 61.167 137.111C59.975 137.616 58.6901 137.975 57.3978 137.88C56.7235 137.832 56.0327 137.663 55.393 137.859C54.9921 138.014 54.6149 138.223 54.2721 138.481C52.136 138.346 48.5381 138.119 47.2678 138.013C45.4142 137.861 45.8698 137.107 45.8698 137.107V136.575C45.9453 136.563 46.0213 136.555 46.0976 136.55C46.5417 136.542 46.9839 136.607 47.4063 136.744L50.193 137.489C50.2707 137.202 50.4066 136.933 50.5924 136.699C50.7782 136.465 51.0101 136.272 51.2739 136.13C51.8051 135.849 52.402 135.712 53.0035 135.735C54.447 135.755 55.8122 136.434 57.2538 136.503C57.6553 136.539 58.0595 136.473 58.4276 136.309C58.6263 136.21 58.7921 136.067 58.9926 135.96C59.3009 135.81 59.6274 135.7 59.9641 135.634C60.904 135.398 61.8271 135.101 62.7272 134.743C62.9841 134.642 63.2849 134.461 63.2502 134.189C63.2047 133.827 62.6324 133.784 62.4811 133.451C62.4556 133.391 62.444 133.326 62.4472 133.26C62.4503 133.195 62.4681 133.132 62.4993 133.074C62.5813 133.089 62.667 133.107 62.7563 133.127C64.3219 133.474 65.1713 133.615 65.6725 134.904Z" fill="black"/>
<path d="M57.6534 107.261L57.1667 118.635C57.1667 118.635 56.4377 120.958 56.8332 121.622C57.2287 122.287 57.8958 122.949 57.6534 123.342C57.4109 123.735 54.4948 127.982 53.5525 126.353C52.6102 124.723 51.6807 117.663 51.6807 117.663L52.55 108.943L57.6534 107.261Z" fill="#444053"/>
<path d="M59.7632 78.9231L61.1156 80.7189V96.3381C61.1156 96.3381 61.5111 100.502 61.1156 101.362C60.7201 102.221 58.7152 103.941 58.7152 103.941L57.0293 95.3424L57.3938 86.2457L59.7632 78.9231Z" fill="#444053"/>
<path opacity="0.1" d="M57.6534 107.261L57.1667 118.635C57.1667 118.635 56.4377 120.958 56.8332 121.622C57.2287 122.287 57.8958 122.949 57.6534 123.342C57.4109 123.735 54.4948 127.982 53.5525 126.353C52.6102 124.723 51.6807 117.663 51.6807 117.663L52.55 108.943L57.6534 107.261Z" fill="black"/>
<path opacity="0.1" d="M59.7632 78.9231L61.1156 80.7189V96.3381C61.1156 96.3381 61.5111 100.502 61.1156 101.362C60.7201 102.221 58.7152 103.941 58.7152 103.941L57.0293 95.3424L57.3938 86.2457L59.7632 78.9231Z" fill="black"/>
<path d="M61.1163 72.2612V80.7098L59.598 87.2866C59.598 87.2866 59.1114 103.157 59.5361 105.087C59.9607 107.017 58.078 108.829 58.078 108.829C58.078 108.829 56.9844 108.95 56.9844 109.794C56.9844 110.638 55.1618 113.052 55.1618 113.052L55.2219 117.759C55.2219 117.759 56.0129 126.57 54.7973 128.259C53.5816 129.948 55.2219 130.19 55.2219 130.19C53.7037 135.138 46.4132 133.992 45.7553 133.449C45.0973 132.906 45.7553 122.225 45.7553 122.225C45.7553 122.225 47.3847 105.933 48.6605 105.208C49.9364 104.484 48.7225 103.579 49.1472 102.493C49.5718 101.407 48.7225 98.4506 48.7225 98.4506C48.7225 98.4506 48.358 94.9495 47.4467 93.2606C46.5354 91.5716 46.6557 86.9245 46.6557 86.9245C46.6557 86.9245 44.104 83.5447 43.3458 82.2178C42.5876 80.8909 42.0991 77.4513 42.2814 74.8554C42.4053 73.1012 43.333 70.5469 43.9217 69.0769C44.2042 68.3727 44.4084 67.9165 44.4084 67.9165L44.5815 67.9618L54.5366 70.5505L61.1163 72.2612Z" fill="#444053"/>
<path opacity="0.1" d="M62.0416 31.8918C61.1011 32.1597 60.2026 33.0794 59.4207 34.1963H59.2165C58.0705 34.1971 56.9445 33.8974 55.9524 33.3275C54.9603 32.7575 54.1372 31.9376 53.5664 30.9505C53.3279 30.5415 53.136 30.1073 52.9941 29.6561C53.5573 28.235 53.9747 27.0004 53.9747 27.0004C53.9747 27.0004 64.9122 31.0772 62.0416 31.8918Z" fill="black"/>
<path d="M65.7328 27.3661C65.7345 28.3566 65.5071 29.3343 65.0684 30.2238C64.6297 31.1133 63.9912 31.8909 63.2022 32.4967C62.4132 33.1026 61.4948 33.5204 60.5176 33.7181C59.5404 33.9158 58.5305 33.8881 57.5658 33.6371C56.6011 33.3861 55.7073 32.9185 54.9532 32.2703C54.1991 31.6222 53.6049 30.8107 53.2162 29.8985C52.8276 28.9863 52.655 27.9976 52.7117 27.0087C52.7684 26.0198 53.0529 25.057 53.5432 24.1945C53.7407 23.844 53.9714 23.5131 54.2322 23.2061C54.662 22.6975 55.1671 22.2568 55.7303 21.899C56.6817 21.2986 57.7735 20.9535 58.8993 20.8975C60.025 20.8416 61.1461 21.0766 62.153 21.5797C63.16 22.0827 64.0183 22.8366 64.6441 23.7677C65.27 24.6988 65.642 25.7752 65.7237 26.8918C65.7274 27.0511 65.7328 27.2086 65.7328 27.3661Z" fill="#EFB7B9"/>
<path opacity="0.1" d="M60.2575 42.8585L60.2356 43.0577L57.2046 38.3509C56.8875 39.095 56.7107 39.5928 56.7107 39.5928C56.7107 39.5928 49.5114 34.209 50.6505 33.8469C51.0333 33.7256 51.5363 32.911 52.0339 31.8846L52.0959 31.7542C52.6244 33.3183 55.6955 36.4447 56.9732 37.6974C57.1208 37.8422 57.2429 37.9617 57.3377 38.0486L57.5327 38.2296L57.6348 38.331C58.0995 38.8071 60.0607 40.9071 60.2575 42.8585Z" fill="black"/>
<path d="M62.523 58.8289L62.1913 69.4317L62.1329 71.3199C62.1329 71.3199 58.2034 70.9578 54.5363 70.5595C51.5837 70.2391 48.8005 69.8934 48.3722 69.6906C47.8254 69.4354 46.6535 69.238 45.7294 69.1131C45.015 69.0172 44.4536 68.9665 44.4536 68.9665C44.4536 68.9665 44.244 69.028 43.9214 69.086C43.2179 69.2127 41.9821 69.3159 41.2622 68.695C40.3418 67.9002 42.7604 65.0128 43.3637 64.3195L43.4967 64.1692L43.2689 62.0784L42.6766 56.6565C42.6766 56.6565 42.312 53.5338 41.7653 51.8593C41.6191 51.3832 41.5136 50.8957 41.4499 50.402C41.2468 48.8726 41.3509 47.3184 41.7561 45.8292C41.9293 45.1964 42.0392 44.5482 42.0842 43.894C42.1753 42.2195 47.3242 35.7477 48.6001 35.1594C49.174 34.8936 49.6358 34.4361 49.905 33.8668C49.9939 33.6878 50.0606 33.4988 50.1037 33.3038C50.6505 30.9505 52.0339 31.8846 52.0339 31.8846C52.3674 33.7256 57.5308 38.5989 57.5308 38.5989L57.6329 38.7003C58.1451 39.2217 60.427 41.6692 60.2648 43.7583C60.2324 44.5358 60.3493 45.3123 60.6092 46.0465C61.6595 49.3312 62.2633 52.7405 62.4045 56.1841L62.523 58.8289Z" fill="#DCE6F2"/>
<path opacity="0.1" d="M55.207 46.2384C55.207 46.2384 53.9311 49.3159 52.9743 49.8137C52.0174 50.3115 55.6626 50.8637 55.207 46.2384Z" fill="black"/>
<path opacity="0.1" d="M56.1642 51.986C56.1642 51.986 53.248 52.3481 53.248 52.8911C53.248 53.4342 56.1642 51.986 56.1642 51.986Z" fill="black"/>
<path opacity="0.1" d="M59.2168 55.5161C59.2168 55.5161 54.9792 64.477 53.7945 64.7485C52.6098 65.0201 59.2168 55.5161 59.2168 55.5161Z" fill="black"/>
<path opacity="0.1" d="M57.451 39.0533L53.9461 40.5667L49.7158 34.2199C49.8047 34.0409 49.8714 33.8518 49.9145 33.6569C50.4613 31.3035 51.8446 32.2376 51.8446 32.2376C52.1782 34.0787 57.3416 38.9519 57.3416 38.9519L57.451 39.0533Z" fill="black"/>
<path d="M57.6326 38.6913L54.1277 40.2047L49.8975 33.8578C49.9863 33.6788 50.0531 33.4897 50.0961 33.2948C50.6429 30.9414 52.0263 31.8755 52.0263 31.8755C52.3598 33.7166 57.5233 38.5899 57.5233 38.5899L57.6326 38.6913Z" fill="#DCE6F2"/>
<path opacity="0.1" d="M62.1327 71.3199C62.1327 71.3199 58.2031 70.9578 54.536 70.5596L61.1157 72.2703V74.2616C60.8277 74.5205 60.578 74.6544 60.4158 74.5856C59.6576 74.2688 53.4698 73.2732 53.4698 73.2732C53.4698 73.2732 49.8756 71.4629 45.9971 69.2906C45.9029 69.2388 45.8117 69.182 45.7237 69.1204C45.2715 68.8154 44.8818 68.4278 44.5754 67.9781C43.8592 66.948 43.5092 65.6247 43.3579 64.3267C43.2729 63.5829 43.2412 62.8339 43.2632 62.0856C43.282 61.2371 43.3599 60.3909 43.4965 59.553C43.1214 56.308 42.9388 53.0438 42.9497 49.7775C42.9952 44.7087 47.7796 42.8984 47.7796 42.8984C56.5737 42.129 53.8471 56.2492 53.8471 56.2492C53.8471 56.2492 53.3386 60.2319 53.2 60.6392C53.0615 61.0465 52.564 61.7254 52.6314 62.6758C52.6988 63.6262 54.3793 64.763 54.3793 64.763C54.3793 64.763 56.0196 65.527 56.6958 66.6584C57.1879 67.4929 60.3848 68.6244 62.191 69.4318L62.1327 71.3199Z" fill="black"/>
<path opacity="0.1" d="M65.0778 23.3473C65.0811 23.6454 65.0189 23.9407 64.8955 24.2126C64.8021 24.4344 64.6937 24.6497 64.5711 24.857C64.3792 25.2384 64.107 25.5743 63.7728 25.8418C63.3517 26.1405 62.8195 26.2238 62.3147 26.3451C61.8098 26.4664 61.2849 26.6601 60.9969 27.0873C60.8409 27.362 60.7365 27.6625 60.6889 27.9744C60.6406 28.2859 60.5154 28.5807 60.3244 28.8324C60.2249 28.9553 60.0872 29.0419 59.9328 29.0786C59.7784 29.1153 59.6161 29.1 59.4714 29.0352C59.319 28.9331 59.2034 28.7853 59.1415 28.6134C58.9337 28.1481 58.8809 27.6322 58.797 27.1308C58.7132 26.6293 58.5947 26.1134 58.2849 25.7097C57.975 25.306 57.4264 25.0399 56.9398 25.1974C56.7769 25.2597 56.6284 25.354 56.5031 25.4747C56.3778 25.5954 56.2784 25.74 56.2107 25.8998C56.0761 26.2197 55.9836 26.5556 55.9355 26.899C55.7095 28.1276 55.4428 29.349 55.1354 30.5631C55.126 30.6128 55.1055 30.6599 55.0753 30.7006C55.0268 30.7486 54.9614 30.7759 54.893 30.7767C54.4847 30.831 54.0929 30.5468 53.681 30.5775C53.6385 30.5804 53.5964 30.587 53.5552 30.5975C52.8892 29.4479 52.5952 28.1227 52.7128 26.8015C52.8305 25.4804 53.3543 24.2271 54.2132 23.2115L54.246 23.2024C54.52 23.1058 54.769 22.95 54.975 22.7462C55.2381 22.4847 55.4818 22.2046 55.7041 21.9081L55.8499 21.7271C56.2688 21.2258 56.746 20.7755 57.2715 20.3856C57.4149 20.2689 57.5795 20.1804 57.7563 20.1249C57.9076 20.0957 58.0627 20.0908 58.2156 20.1105C58.8451 20.1855 59.4796 20.2091 60.113 20.1811C60.5543 20.1122 60.999 20.0674 61.4453 20.0471C62.599 20.0797 63.5832 20.8889 64.3123 21.7759C64.7041 22.2303 65.0541 22.7535 65.0778 23.3473Z" fill="black"/>
<path d="M52.692 24.3665C52.4387 24.7792 51.9812 25.0598 51.8099 25.5124C51.5584 26.1695 51.983 26.9878 51.593 27.5743C51.4636 27.7716 51.2504 27.9182 51.1774 28.1445C51.0535 28.5265 51.3925 28.9338 51.305 29.3267C51.2175 29.7195 50.6963 30.0508 50.8348 30.4345C50.9167 30.6019 51.0602 30.7316 51.2358 30.7966C51.5119 30.954 51.8298 31.024 52.1471 30.9975C52.6447 30.9161 53.0146 30.4309 53.5195 30.3947C53.9296 30.3658 54.3215 30.6482 54.7297 30.5957C54.7981 30.5933 54.8632 30.5655 54.912 30.5178C54.943 30.4775 54.9636 30.4303 54.9721 30.3802C55.2783 29.1673 55.5456 27.946 55.7741 26.7162C55.8206 26.3726 55.9125 26.0367 56.0475 25.7169C56.1156 25.5575 56.2153 25.4131 56.3405 25.2925C56.4657 25.1719 56.6139 25.0774 56.7765 25.0145C57.2632 24.8589 57.8099 25.1232 58.1216 25.5269C58.4333 25.9306 58.5517 26.4465 58.6356 26.9479C58.7194 27.4494 58.7723 27.9653 58.9782 28.4306C59.0408 28.6031 59.157 28.7514 59.3099 28.8542C59.5833 29.0117 59.9515 28.8868 60.1611 28.6514C60.3531 28.3996 60.4785 28.1039 60.5256 27.7915C60.5732 27.4803 60.6776 27.1803 60.8337 26.9063C61.1216 26.4791 61.6484 26.2854 62.1514 26.1641C62.6544 26.0428 63.1848 25.9577 63.6095 25.659C63.9433 25.3918 64.2155 25.0566 64.4078 24.676C64.6775 24.209 64.9291 23.7021 64.9072 23.1644C64.8835 22.5779 64.5336 22.0547 64.1599 21.5985C63.4309 20.7115 62.4448 19.9023 61.2911 19.8715C60.8448 19.8901 60.3999 19.9348 59.9588 20.0055C59.3254 20.0338 58.6908 20.0096 58.0615 19.9331C57.9084 19.9149 57.7535 19.9204 57.6022 19.9494C57.4251 20.0031 57.2608 20.0917 57.1192 20.21C56.5932 20.5993 56.1153 21.0489 55.6957 21.5497C55.4251 21.906 55.1317 22.2446 54.8172 22.5634C54.6111 22.7675 54.3621 22.9239 54.0882 23.0214C53.9059 23.0721 53.7236 23.0359 53.5505 23.092C53.0128 23.2604 52.9417 23.9573 52.692 24.3665Z" fill="#965D7B"/>
<path opacity="0.1" d="M70.2435 29.2886C68.7855 29.5547 67.5771 28.3835 66.9082 27.529C66.7027 27.2695 66.5158 26.9961 66.3486 26.7108L71.3535 27.6485L71.5558 27.6865C71.5558 27.6865 72.4762 28.8831 70.2435 29.2886Z" fill="black"/>
<g opacity="0.1">
<path opacity="0.1" d="M51.3047 28.8089C51.3251 28.5721 51.2889 28.334 51.199 28.1138C51.199 28.1319 51.1826 28.15 51.1772 28.1681C51.0988 28.4106 51.2045 28.6623 51.2719 28.9139C51.2864 28.8801 51.2974 28.8449 51.3047 28.8089Z" fill="black"/>
<path opacity="0.1" d="M51.7387 25.8455C51.72 26.0958 51.7248 26.3473 51.7533 26.5967C51.772 26.3464 51.7671 26.0949 51.7387 25.8455Z" fill="black"/>
<path opacity="0.1" d="M64.3969 24.1528C64.2051 24.5342 63.9329 24.8701 63.5986 25.1376C63.1776 25.4363 62.6472 25.5196 62.1406 25.6409C61.6339 25.7622 61.1108 25.9559 60.8228 26.3831C60.667 26.6579 60.5626 26.9584 60.5148 27.2701C60.4673 27.5825 60.342 27.8781 60.1503 28.13C59.9407 28.3654 59.5725 28.4921 59.2991 28.3328C59.1461 28.2301 59.03 28.0817 58.9674 27.9092C58.7614 27.4439 58.7067 26.9298 58.6247 26.4266C58.5427 25.9233 58.4206 25.4092 58.1108 25.0055C57.8009 24.6018 57.2523 24.3357 56.7657 24.4932C56.6029 24.5557 56.4545 24.6501 56.3293 24.7708C56.2041 24.8915 56.1045 25.0359 56.0366 25.1956C55.9017 25.5153 55.8098 25.8513 55.7632 26.1948C55.536 27.4246 55.2687 28.646 54.9613 29.8589C54.9527 29.9089 54.9321 29.9561 54.9011 29.9964C54.8523 30.0441 54.7873 30.0719 54.7189 30.0743C54.3106 30.1268 53.9187 29.8444 53.5087 29.8733C53.0038 29.9095 52.6338 30.3947 52.1362 30.4744C51.8188 30.5026 51.5004 30.4324 51.2249 30.2734C51.0982 30.2193 50.9846 30.1391 50.8914 30.0381C50.8487 30.0987 50.8205 30.1682 50.8088 30.2413C50.7971 30.3143 50.8023 30.3891 50.8239 30.4599C50.9042 30.6284 51.0484 30.7586 51.2249 30.8219C51.5004 30.9809 51.8188 31.0511 52.1362 31.0229C52.6338 30.9432 53.0038 30.4581 53.5087 30.4219C53.9187 30.3929 54.3106 30.6753 54.7189 30.6228C54.7873 30.6204 54.8523 30.5927 54.9011 30.545C54.9321 30.5046 54.9527 30.4574 54.9613 30.4074C55.2675 29.2005 55.5348 27.9792 55.7632 26.7434C55.8098 26.3998 55.9017 26.0638 56.0366 25.7441C56.1045 25.5844 56.2041 25.44 56.3293 25.3193C56.4545 25.1987 56.6029 25.1042 56.7657 25.0417C57.2523 24.8842 57.7991 25.1503 58.1108 25.554C58.4224 25.9577 58.5409 26.4736 58.6247 26.9751C58.7086 27.4765 58.7614 27.9925 58.9674 28.4577C59.03 28.6302 59.1461 28.7786 59.2991 28.8813C59.5725 29.0388 59.9407 28.9139 60.1503 28.6786C60.342 28.4266 60.4673 28.131 60.5148 27.8187C60.5626 27.5069 60.667 27.2064 60.8228 26.9316C61.1108 26.5044 61.6375 26.3125 62.1406 26.1894C62.6436 26.0663 63.174 25.9848 63.5986 25.6861C63.9329 25.4186 64.2051 25.0827 64.3969 24.7014C64.6667 24.2361 64.9182 23.7292 64.8963 23.1916C64.8928 23.1224 64.8855 23.0536 64.8745 22.9852C64.7865 23.3995 64.6248 23.795 64.3969 24.1528Z" fill="black"/>
</g>
<path opacity="0.1" d="M64.9029 24.2072C65.3703 25.0326 65.6473 25.9508 65.714 26.8954C64.09 25.9903 62.5627 24.9964 61.7917 24.6507C60.4485 24.0479 55.4253 24.1384 53.5371 24.1945C53.7346 23.844 53.9653 23.5131 54.2261 23.2061C54.6575 22.6971 55.1646 22.2563 55.7297 21.899C56.4782 21.4273 57.3156 21.112 58.1909 20.9726C59.0661 20.8332 59.9608 20.8726 60.8203 21.0883C61.6797 21.304 62.4858 21.6915 63.1894 22.2271C63.8929 22.7627 64.4791 23.4353 64.912 24.2035L64.9029 24.2072Z" fill="black"/>
<path opacity="0.1" d="M70.6992 28.5211C69.8225 28.789 68.3918 28.2713 66.9082 27.529C66.7027 27.2695 66.5158 26.9961 66.3486 26.7108L71.3535 27.6485C71.6852 27.873 71.7691 28.1934 70.6992 28.5211Z" fill="black"/>
<path d="M59.6051 17.9309C59.6051 17.9309 54.8207 17.6594 53.4756 20.239L53.2587 22.5254L52.8942 22.4856L52.8213 24.0406C52.8213 24.0406 60.1336 23.7238 61.7977 24.4697C63.4617 25.2155 68.6325 28.9736 70.7048 28.34C72.7771 27.7064 70.5225 27.1181 70.5225 27.1181C70.5225 27.1181 67.6701 25.9179 67.6701 24.9765C67.6701 24.0352 66.9629 19.0623 59.6051 17.9309Z" fill="#444053"/>
<path opacity="0.1" d="M50.377 102.689C50.377 102.689 53.4298 105.63 54.7512 105.404C54.7512 105.404 51.0149 105.087 50.377 102.689Z" fill="black"/>
<path opacity="0.1" d="M49.7393 104.052C49.7393 104.052 50.0127 105.565 50.7417 105.417C51.4707 105.268 49.7393 104.052 49.7393 104.052Z" fill="black"/>
<path opacity="0.1" d="M54.5233 129.345C54.5233 129.345 50.1891 132.694 50.92 132.785C51.6508 132.875 54.5233 129.345 54.5233 129.345Z" fill="black"/>
<path d="M60.3213 62.8767L74.3554 60.6084V73.8054L61.0212 73.112L60.3213 62.8767Z" fill="#6C63FF"/>
<path opacity="0.05" d="M60.3213 62.8767L74.3554 60.6084V73.8054L61.0212 73.112L60.3213 62.8767Z" fill="black"/>
<path d="M74.3555 60.6084L91.1855 61.8593L90.2541 73.3438L74.3555 73.8054V60.6084Z" fill="#6C63FF"/>
<path opacity="0.1" d="M74.3555 60.6084L91.1855 61.8593L90.2541 73.3438L74.3555 73.8054V60.6084Z" fill="black"/>
<path d="M79.5299 56.5805L74.3555 60.6084L91.1855 61.8593L93.9358 57.7373L79.5299 56.5805Z" fill="#6C63FF"/>
<path d="M55.2393 58.4777L67.8736 56.9498L74.3548 60.6084L60.3207 62.8767L55.2393 58.4777Z" fill="#6C63FF"/>
<path d="M77.432 64.0353V82.0784L70.8578 81.4086L67.9981 81.119L67.1269 81.0285L64.2691 80.737L60.3213 80.3351V62.8767L74.3536 63.8253L77.432 64.0353Z" fill="#6C63FF"/>
<path d="M91.1851 61.8593V79.4553L85.9159 80.46L83.3533 80.9488L77.4316 82.0784V64.0353L91.1851 61.8593Z" fill="#6C63FF"/>
<path opacity="0.05" d="M91.1851 61.8593V79.4553L85.9159 80.46L83.3533 80.9488L77.4316 82.0784V64.0353L91.1851 61.8593Z" fill="black"/>
<path d="M55.2393 66.6747L60.3207 62.8767L77.4314 64.0353L74.9125 68.2496L55.2393 66.6747Z" fill="#6C63FF"/>
<path opacity="0.1" d="M55.2393 66.6747L60.3207 62.8767L77.4314 64.0353L74.9125 68.2496L55.2393 66.6747Z" fill="white"/>
<path d="M91.1851 61.8593L77.4316 64.0353L81.908 68.0179L96.6401 65.5632L91.1851 61.8593Z" fill="#6C63FF"/>
<path opacity="0.1" d="M91.1851 61.8593L77.4316 64.0353L81.908 68.0179L96.6401 65.5632L91.1851 61.8593Z" fill="white"/>
<path opacity="0.1" d="M85.9161 80.46L83.3535 80.9488V77.1888L85.7539 76.5878L85.9161 80.46Z" fill="white"/>
<path opacity="0.1" d="M70.8577 78.9213V81.4086L67.998 81.119V78.9213H70.8577Z" fill="white"/>
<path opacity="0.1" d="M67.1264 79.7051V81.0285L64.2686 80.737V79.7051H67.1264Z" fill="white"/>
<path opacity="0.1" d="M75.7114 77.6015C73.7521 80.0907 67.2818 78.3709 67.2818 78.3709L62.4738 73.389L61.8213 72.7138L63.0971 70.3604C63.0971 70.3604 63.4616 70.4799 64.0704 70.6899C67.2928 71.8086 77.3609 75.507 75.7114 77.6015Z" fill="black"/>
<path d="M75.5288 77.2395C73.5695 79.7287 67.0992 78.0089 67.0992 78.0089L62.2912 73.027L61.6387 72.3517L62.9145 69.9984C62.9145 69.9984 63.279 70.1178 63.8878 70.3278C67.1102 71.4466 77.1783 75.145 75.5288 77.2395Z" fill="#EFB7B9"/>
<path opacity="0.1" d="M63.8809 70.3278C63.6148 71.0881 62.9386 72.2142 62.2843 73.027L61.6318 72.3517L62.9077 69.9984C62.9077 69.9984 63.274 70.1178 63.8809 70.3278Z" fill="black"/>
<path d="M47.9622 42.1743C47.9622 42.1743 43.1779 43.9845 43.1323 49.0533C43.1214 52.3197 43.304 55.5838 43.6791 58.8289C43.6791 58.8289 42.3121 66.3868 46.1852 68.5592C50.0582 70.7315 53.6579 72.5418 53.6579 72.5418C53.6579 72.5418 59.8456 73.5375 60.6057 73.8543C61.3657 74.1711 64.0067 70.0979 63.5966 69.4191C63.1865 68.7402 57.5528 67.0657 56.8839 65.9343C56.215 64.8028 54.5674 64.0407 54.5674 64.0407C54.5674 64.0407 52.8869 62.902 52.8195 61.9516C52.752 61.0012 53.2478 60.3224 53.3881 59.9151C53.5285 59.5078 54.037 55.5251 54.037 55.5251C54.037 55.5251 56.7563 41.3958 47.9622 42.1743Z" fill="#DCE6F2"/>
<path opacity="0.1" d="M50.1491 58.9556C50.1491 58.9556 43.6788 59.6797 44.18 61.9426C44.18 61.9426 46.6387 59.6598 50.1491 58.9556Z" fill="black"/>
<path opacity="0.1" d="M50.1492 59.8607C50.1492 59.8607 46.4767 62.5309 47.151 62.712C47.8254 62.893 50.1492 59.8607 50.1492 59.8607Z" fill="black"/>
<path opacity="0.1" d="M51.7894 60.9469C51.7894 60.9469 50.7414 62.8188 51.3337 62.721C51.9261 62.6232 51.7894 60.9469 51.7894 60.9469Z" fill="black"/>
<path d="M119.157 20.3458C119.157 20.3458 112.231 19.9313 113.04 24.7575C113.04 24.7575 112.878 25.6101 113.656 25.9975C113.656 25.9975 113.669 25.6355 114.367 25.7604C114.616 25.8019 114.869 25.8141 115.12 25.7966C115.461 25.774 115.785 25.6411 116.042 25.4182C116.042 25.4182 117.991 24.6199 118.749 21.4555C118.749 21.4555 119.31 20.764 119.296 20.5866L118.125 21.0844C118.125 21.0844 118.525 21.9226 118.209 22.6195C118.209 22.6195 118.173 21.1152 117.947 21.1496C117.901 21.1496 117.34 21.441 117.34 21.441C117.34 21.441 118.027 22.9001 117.508 23.9628C117.508 23.9628 117.704 22.1633 117.125 21.546L116.301 22.0239C116.301 22.0239 117.105 23.5319 116.56 24.7629C116.56 24.7629 116.7 22.8748 116.128 22.1398L115.381 22.7173C115.381 22.7173 116.137 24.2053 115.676 25.2263C115.676 25.2263 115.616 23.0287 115.218 22.8621C115.218 22.8621 114.566 23.4342 114.467 23.6695C114.467 23.6695 114.983 24.7557 114.663 25.3187C114.663 25.3187 114.466 23.8541 114.298 23.8469C114.298 23.8469 113.647 24.8172 113.58 25.4762C113.611 24.8618 113.804 24.2664 114.139 23.7491C113.764 23.8196 113.418 23.9977 113.144 24.2615C113.144 24.2615 113.245 23.5754 114.3 23.5156C114.3 23.5156 114.847 22.7788 114.981 22.7336C114.981 22.7336 113.932 22.6467 113.296 22.9273C113.296 22.9273 113.855 22.281 115.175 22.5652L115.904 21.9678C115.904 21.9678 114.522 21.7868 113.935 21.9877C113.935 21.9877 114.61 21.4157 116.102 21.8321L116.904 21.3559C116.904 21.3559 115.727 21.1025 115.025 21.1948C115.025 21.1948 115.765 20.7984 117.139 21.2274L117.714 20.9722C117.714 20.9722 116.85 20.8038 116.598 20.7767C116.347 20.7495 116.332 20.6807 116.332 20.6807C116.879 20.5904 117.44 20.6531 117.952 20.8617C117.952 20.8617 119.183 20.4218 119.157 20.3458Z" fill="#6C63FF"/>
<path opacity="0.1" d="M140.201 44.4842C140.201 44.4842 133.275 44.0696 134.084 48.8959C134.084 48.8959 133.922 49.7485 134.7 50.1359C134.7 50.1359 134.713 49.7739 135.413 49.8988C135.662 49.9403 135.914 49.9525 136.166 49.935C136.503 49.9107 136.822 49.7786 137.077 49.5584C137.077 49.5584 139.027 48.7583 139.785 45.5939C139.785 45.5939 140.345 44.9042 140.323 44.7268L139.153 45.2228C139.153 45.2228 139.552 46.061 139.239 46.7579C139.239 46.7579 139.2 45.2536 138.976 45.288C138.931 45.288 138.367 45.5794 138.367 45.5794C138.367 45.5794 139.056 47.0403 138.537 48.1011C138.537 48.1011 138.734 46.3017 138.152 45.6844L137.338 46.1569C137.338 46.1569 138.141 47.6649 137.596 48.8959C137.596 48.8959 137.737 47.0077 137.165 46.2728L136.419 46.852C136.419 46.852 137.174 48.3383 136.714 49.3593C136.714 49.3593 136.654 47.1616 136.257 46.9951C136.257 46.9951 135.604 47.5671 135.504 47.8024C135.504 47.8024 136.022 48.8886 135.701 49.4516C135.701 49.4516 135.504 47.9871 135.336 47.9799C135.336 47.9799 134.686 48.9502 134.618 49.6091C134.651 48.9947 134.844 48.3994 135.18 47.8821C134.804 47.9527 134.458 48.1308 134.183 48.3944C134.183 48.3944 134.285 47.7083 135.34 47.6486C135.34 47.6486 135.878 46.9118 136.022 46.8665C136.022 46.8665 134.972 46.7796 134.336 47.0602C134.336 47.0602 134.895 46.414 136.213 46.7072L136.942 46.1098C136.942 46.1098 135.559 45.9288 134.974 46.1297C134.974 46.1297 135.648 45.5577 137.141 45.9741L137.943 45.4979C137.943 45.4979 136.764 45.2463 136.062 45.3368C136.062 45.3368 136.804 44.9404 138.178 45.3694L138.752 45.1142C138.752 45.1142 137.888 44.9458 137.635 44.9187C137.381 44.8915 137.369 44.8227 137.369 44.8227C137.916 44.7323 138.477 44.795 138.991 45.0037C138.991 45.0037 140.223 44.5602 140.201 44.4842Z" fill="#6C63FF"/>
<path opacity="0.1" d="M98.1256 40.1992C98.1256 40.1992 99.7204 33.4849 94.7921 33.4613C94.7921 33.4613 93.9737 33.1572 93.4579 33.8524C93.4579 33.8524 93.8097 33.9266 93.5709 34.5892C93.4883 34.8234 93.4333 35.0664 93.4069 35.3133C93.3716 35.6498 93.4477 35.9885 93.6238 36.2782C93.6238 36.2782 94.0849 38.3238 97.0867 39.6055C97.0867 39.6055 97.6773 40.2716 97.8559 40.2789L97.5643 39.0497C97.5643 39.0497 96.6639 39.2977 96.026 38.8687C96.026 38.8687 97.526 39.0877 97.5278 38.8687C97.5278 38.8234 97.3456 38.2242 97.3456 38.2242C97.3456 38.2242 95.7799 38.6478 94.8139 37.9581C94.8139 37.9581 96.5655 38.4577 97.2781 37.9961L96.9501 37.1055C96.9501 37.1055 95.3097 37.6359 94.187 36.8918C94.187 36.8918 96.0369 37.3517 96.8644 36.9172L96.4178 36.0881C96.4178 36.0881 94.8139 36.5732 93.8789 35.9487C93.8789 35.9487 96.0661 36.2637 96.303 35.9052C96.303 35.9052 95.8474 35.1684 95.6305 35.0309C95.6305 35.0309 94.4713 35.3531 93.961 34.9422C93.961 34.9422 95.4464 34.9983 95.481 34.8426C95.481 34.8426 94.6299 34.0406 93.981 33.8596C94.5857 33.9964 95.1441 34.2871 95.6013 34.7032C95.5946 34.3238 95.4768 33.9546 95.2623 33.6406C95.2623 33.6406 95.9257 33.8578 95.8091 34.9078C95.8091 34.9078 96.447 35.5595 96.4671 35.7079C96.4671 35.7079 96.7313 34.696 96.5618 34.0243C96.5618 34.0243 97.1086 34.6833 96.5928 35.9233L97.0594 36.747C97.0594 36.747 97.4823 35.4255 97.3747 34.8172C97.3747 34.8172 97.8286 35.574 97.1597 36.9643L97.4968 37.8314C97.4968 37.8314 97.947 36.7199 97.9762 36.0211C97.9762 36.0211 98.2441 36.814 97.5825 38.0866L97.7392 38.6913C97.7392 38.6913 98.0527 37.8748 98.122 37.6322C98.1913 37.3897 98.2623 37.3879 98.2623 37.3879C98.2596 37.9386 98.1024 38.4777 97.8085 38.9447C97.8085 38.9447 98.0473 40.2083 98.1256 40.1992Z" fill="#6C63FF"/>
<path opacity="0.1" d="M82.9579 42.4874C82.9579 42.4874 77.3953 38.3545 75.4068 42.8314C75.4068 42.8314 74.7999 43.4559 75.2355 44.2036C75.2355 44.2036 75.4433 43.9121 75.9645 44.3955C76.1492 44.5661 76.3535 44.7143 76.5733 44.8372C76.871 45.0018 77.2146 45.0654 77.552 45.0182C77.552 45.0182 79.6225 45.4147 82.0065 43.1862C82.0065 43.1862 82.8577 42.9147 82.9379 42.7553L81.6821 42.5363C81.6821 42.5363 81.5509 43.4541 80.9038 43.8651C80.9038 43.8651 81.704 42.587 81.4962 42.4947C81.4543 42.4748 80.8273 42.4042 80.8273 42.4042C80.8273 42.4042 80.594 44.0008 79.5733 44.6037C79.5733 44.6037 80.7343 43.2079 80.5903 42.3752L79.6371 42.3245C79.6371 42.3245 79.4749 44.0244 78.3376 44.7557C78.3376 44.7557 79.4986 43.255 79.4311 42.3281L78.487 42.4042C78.487 42.4042 78.2957 44.0569 77.3461 44.658C77.3461 44.658 78.5107 42.7897 78.272 42.4349C78.272 42.4349 77.4099 42.5562 77.1966 42.6974C77.1966 42.6974 77.0308 43.8813 76.4475 44.1819C76.4475 44.1819 77.0946 42.8513 76.9633 42.759C76.9633 42.759 75.8825 43.2134 75.4579 43.7311C75.8252 43.2354 76.3165 42.8435 76.8831 42.5942C76.5306 42.4487 76.1429 42.4084 75.7677 42.4784C75.7677 42.4784 76.2306 41.9606 77.1456 42.4874C77.1456 42.4874 78.0022 42.167 78.148 42.2068C78.148 42.2068 77.3187 41.5606 76.6316 41.4483C76.6316 41.4483 77.4591 41.213 78.3977 42.1724L79.3437 42.0765C79.3437 42.0765 78.292 41.1713 77.6887 41.0193C77.6887 41.0193 78.5691 40.9089 79.5843 42.0711L80.5174 42.1127C80.5174 42.1127 79.6736 41.2582 79.0375 40.9505C79.0375 40.9505 79.874 41.0229 80.7854 42.1326L81.4069 42.2322C81.4069 42.2322 80.7781 41.6203 80.5812 41.461C80.3844 41.3017 80.4117 41.2347 80.4117 41.2347C80.9188 41.4577 81.3535 41.8162 81.6675 42.2702C81.6675 42.2702 82.9342 42.5616 82.9579 42.4874Z" fill="#6C63FF"/>
<path opacity="0.1" d="M101.477 4.08943C101.477 4.08943 95.9148 -0.0452695 93.9263 4.43338C93.9263 4.43338 93.3194 5.05793 93.755 5.80558C93.755 5.80558 93.9628 5.51412 94.4841 5.99747C94.6697 6.1672 94.8746 6.31483 95.0946 6.43737C95.3923 6.60213 95.736 6.6657 96.0734 6.6184C96.0734 6.6184 98.1439 7.01485 100.528 4.78458C100.528 4.78458 101.379 4.51485 101.457 4.35373L100.202 4.13831C100.202 4.13831 100.072 5.05612 99.4233 5.46706C99.4233 5.46706 100.225 4.18899 100.017 4.09667C99.9756 4.07676 99.3486 4.00615 99.3486 4.00615C99.3486 4.00615 99.108 5.60645 98.0874 6.20565C98.0874 6.20565 99.2465 4.80992 99.1044 3.97719L98.1511 3.9265C98.1511 3.9265 97.9871 5.62636 96.8516 6.35591C96.8516 6.35591 98.0126 4.85518 97.9452 3.92831L97.0029 4.00434C97.0029 4.00434 96.8097 5.65895 95.8601 6.25996C95.8601 6.25996 97.0266 4.39175 96.7878 4.03693C96.7878 4.03693 95.9257 4.15822 95.7125 4.29942C95.7125 4.29942 95.5466 5.48335 94.9634 5.78386C94.9634 5.78386 95.6104 4.4533 95.4792 4.35916C95.4792 4.35916 94.3984 4.81535 93.9737 5.33309C94.3405 4.83684 94.832 4.44484 95.399 4.19623C95.0461 4.04961 94.6576 4.00932 94.2818 4.08038C94.2818 4.08038 94.7465 3.56263 95.6615 4.08943C95.6615 4.08943 96.5181 3.7672 96.6639 3.80883C96.6639 3.80883 95.8346 3.16256 95.1475 3.04851C95.1475 3.04851 95.9731 2.81499 96.9118 3.77263L97.8577 3.67668C97.8577 3.67668 96.8079 2.77154 96.2028 2.61766C96.2028 2.61766 97.0831 2.50905 98.1001 3.67125L99.0333 3.71108C99.0333 3.71108 98.1894 2.85662 97.5515 2.55068C97.5515 2.55068 98.3899 2.62309 99.3012 3.7328L99.9209 3.83237C99.9209 3.83237 99.2903 3.22773 99.0934 3.07205C98.8966 2.91636 98.9239 2.84757 98.9239 2.84757C99.4311 3.07034 99.8659 3.42887 100.18 3.88306C100.18 3.88306 101.446 4.15822 101.477 4.08943Z" fill="#6C63FF"/>
<path opacity="0.1" d="M122.733 9.32659C122.733 9.32659 120.509 2.78964 116.316 5.35844C116.316 5.35844 115.459 5.53947 115.392 6.39211C115.392 6.39211 115.729 6.26901 115.878 6.95692C115.934 7.20162 116.018 7.43914 116.128 7.66475C116.279 7.96837 116.524 8.21541 116.828 8.36895C116.828 8.36895 118.308 9.86243 121.545 9.36823C121.545 9.36823 122.4 9.62529 122.556 9.53658L121.645 8.64773C121.645 8.64773 121.014 9.33021 120.245 9.30305C120.245 9.30305 121.636 8.70204 121.521 8.50834C121.497 8.47032 121.022 8.05939 121.022 8.05939C121.022 8.05939 119.917 9.24151 118.732 9.16366C118.732 9.16366 120.484 8.66764 120.841 7.89646L120.087 7.31898C120.087 7.31898 118.982 8.62601 117.628 8.58618C117.628 8.58618 119.451 8.00508 119.912 7.20131L119.092 6.73245C119.092 6.73245 117.998 7.98698 116.864 7.94715C116.864 7.94715 118.891 7.06554 118.896 6.63831C118.896 6.63831 118.118 6.25272 117.861 6.2491C117.861 6.2491 117.048 7.13071 116.403 7.05106C116.403 7.05106 117.694 6.31789 117.639 6.16764C117.639 6.16764 116.491 5.93411 115.844 6.12238C116.429 5.92 117.057 5.87319 117.666 5.98661C117.458 5.66781 117.161 5.41617 116.811 5.26249C116.811 5.26249 117.489 5.09776 117.943 6.04635C117.943 6.04635 118.833 6.26539 118.927 6.37944C118.927 6.37944 118.614 5.38197 118.113 4.90044C118.113 4.90044 118.927 5.17379 119.15 6.49711L119.985 6.94968C119.985 6.94968 119.64 5.60826 119.225 5.13939C119.225 5.13939 120.014 5.5449 120.185 7.07459L120.932 7.63397C120.932 7.63397 120.725 6.45366 120.375 5.84179C120.375 5.84179 121.023 6.37401 121.14 7.80233L121.594 8.23318C121.594 8.23318 121.426 7.3751 121.357 7.13252C121.288 6.88994 121.344 6.87365 121.344 6.87365C121.634 7.34326 121.787 7.88334 121.787 8.43412C121.787 8.43412 122.669 9.37366 122.733 9.32659Z" fill="#6C63FF"/>
<path opacity="0.1" d="M108.221 9.64884C108.221 9.64884 101.314 8.8849 101.884 13.7528C101.884 13.7528 101.678 14.5963 102.431 15.02C102.431 15.02 102.462 14.6579 103.16 14.8208C103.407 14.8735 103.658 14.8984 103.911 14.895C104.252 14.8889 104.581 14.7726 104.849 14.5638C104.849 14.5638 106.838 13.8632 107.766 10.7404C107.766 10.7404 108.36 10.0797 108.347 9.90047L107.153 10.3386C107.153 10.3386 107.518 11.1948 107.153 11.8755C107.153 11.8755 107.192 10.3711 106.971 10.3947C106.925 10.3947 106.349 10.6554 106.349 10.6554C106.349 10.6554 106.962 12.1488 106.39 13.1898C106.39 13.1898 106.678 11.4012 106.129 10.7567L105.281 11.1912C105.281 11.1912 106.01 12.739 105.4 13.941C105.4 13.941 105.637 12.0619 105.103 11.2998L104.328 11.8429C104.328 11.8429 105.006 13.3654 104.494 14.3628C104.494 14.3628 104.547 12.1651 104.159 11.9787C104.159 11.9787 103.477 12.5218 103.366 12.7462C103.366 12.7462 103.827 13.8505 103.479 14.4026C103.479 14.4026 103.357 12.9309 103.196 12.9164C103.196 12.9164 102.496 13.8523 102.394 14.5131C102.458 13.9005 102.681 13.315 103.043 12.815C102.665 12.8669 102.31 13.0274 102.023 13.2766C102.023 13.2766 102.157 12.5978 103.215 12.5906C103.215 12.5906 103.789 11.8827 103.944 11.8447C103.944 11.8447 102.899 11.7053 102.249 11.9533C102.249 11.9533 102.841 11.3342 104.142 11.6945L104.91 11.1351C104.91 11.1351 103.523 10.8563 102.936 11.0373C102.936 11.0373 103.639 10.4942 105.108 10.9921L105.934 10.5558C105.934 10.5558 104.769 10.2444 104.064 10.3005C104.064 10.3005 104.824 9.93848 106.174 10.4399L106.761 10.2136C106.761 10.2136 105.907 10.0018 105.655 9.96202C105.404 9.92219 105.394 9.8534 105.394 9.8534C105.945 9.79061 106.503 9.88085 107.006 10.1141C107.006 10.1141 108.234 9.72487 108.221 9.64884Z" fill="#6C63FF"/>
<path opacity="0.1" d="M168.659 62.902C168.659 62.902 161.755 62.1381 162.325 67.0005C162.325 67.0005 162.12 67.8441 162.872 68.2677C162.872 68.2677 162.903 67.9057 163.601 68.0668C163.848 68.1213 164.1 68.1462 164.352 68.141C164.693 68.1358 165.023 68.0194 165.291 67.8097C165.291 67.8097 167.279 67.1092 168.198 63.9882C168.198 63.9882 168.792 63.3256 168.779 63.1482L167.586 63.5845C167.586 63.5845 167.95 64.4426 167.586 65.1233C167.586 65.1233 167.624 63.6171 167.403 63.6424C167.358 63.6424 166.782 63.9013 166.782 63.9013C166.782 63.9013 167.394 65.3948 166.822 66.4357C166.822 66.4357 167.11 64.649 166.561 64.0027L165.714 64.439C165.714 64.439 166.443 65.9868 165.834 67.1888C165.834 67.1888 166.069 65.3097 165.535 64.5458L164.761 65.0889C164.761 65.0889 165.439 66.6113 164.926 67.607C164.926 67.607 164.979 65.4093 164.591 65.2246C164.591 65.2246 163.911 65.7677 163.798 65.9922C163.798 65.9922 164.261 67.0965 163.911 67.6486C163.911 67.6486 163.789 66.1769 163.629 66.1624C163.629 66.1624 162.929 67.0983 162.827 67.759C162.89 67.1464 163.114 66.561 163.476 66.061C163.097 66.112 162.742 66.2725 162.455 66.5226C162.455 66.5226 162.59 65.842 163.647 65.8347C163.647 65.8347 164.223 65.1269 164.376 65.0907C164.376 65.0907 163.332 64.9495 162.681 65.1975C162.681 65.1975 163.273 64.5802 164.576 64.9404L165.342 64.381C165.342 64.381 163.971 64.124 163.375 64.3014C163.375 64.3014 164.079 63.7583 165.548 64.2543L166.374 63.8199C166.374 63.8199 165.209 63.5085 164.504 63.5646C164.504 63.5646 165.264 63.2025 166.614 63.704L167.201 63.4759C167.201 63.4759 166.346 63.2641 166.095 63.2261C165.843 63.1881 165.834 63.1175 165.834 63.1175C166.385 63.0535 166.943 63.1432 167.445 63.3763C167.445 63.3763 168.677 62.9799 168.659 62.902Z" fill="#6C63FF"/>
<path opacity="0.1" d="M179.214 69.3068C179.214 69.3068 172.31 68.5447 172.88 73.4053C172.88 73.4053 172.676 74.2489 173.427 74.6725C173.427 74.6725 173.458 74.3105 174.156 74.4734C174.402 74.5266 174.653 74.5509 174.905 74.5458C175.244 74.5389 175.572 74.4233 175.84 74.2163C175.84 74.2163 177.827 73.5158 178.745 70.393C178.745 70.393 179.341 69.7322 179.327 69.553L178.133 69.9893C178.133 69.9893 178.497 70.8474 178.133 71.5281C178.133 71.5281 178.171 70.0237 177.951 70.0472C177.905 70.0472 177.329 70.3061 177.329 70.3061C177.329 70.3061 177.942 71.7996 177.369 72.8405C177.369 72.8405 177.657 71.0538 177.109 70.4093L176.261 70.8438C176.261 70.8438 176.99 72.3916 176.381 73.5936C176.381 73.5936 176.617 71.7145 176.082 70.9524L175.308 71.4955C175.308 71.4955 175.986 73.0179 175.476 74.0154C175.476 74.0154 175.527 71.8159 175.138 71.6312C175.138 71.6312 174.459 72.1743 174.346 72.3988C174.346 72.3988 174.809 73.5031 174.459 74.0552C174.459 74.0552 174.336 72.5835 174.176 72.569C174.176 72.569 173.476 73.5049 173.376 74.1656C173.439 73.5533 173.662 72.968 174.023 72.4676C173.645 72.5195 173.29 72.6799 173.002 72.9292C173.002 72.9292 173.139 72.2486 174.196 72.2431C174.196 72.2431 174.77 71.5353 174.925 71.4973C174.925 71.4973 173.881 71.3579 173.23 71.6059C173.23 71.6059 173.822 70.9868 175.126 71.347L175.891 70.7876C175.891 70.7876 174.521 70.5306 173.925 70.708C173.925 70.708 174.628 70.1649 176.097 70.6627L176.923 70.2265C176.923 70.2265 175.758 69.9151 175.053 69.9712C175.053 69.9712 175.813 69.6092 177.163 70.1106L177.75 69.8843C177.75 69.8843 176.895 69.6725 176.646 69.6327C176.396 69.5929 176.383 69.5241 176.383 69.5241C176.934 69.4613 177.492 69.5515 177.994 69.7847C177.994 69.7847 179.232 69.3847 179.214 69.3068Z" fill="#6C63FF"/>
<path opacity="0.1" d="M155.78 15.3585C155.78 15.3585 150.218 11.2256 148.229 15.7024C148.229 15.7024 147.622 16.327 148.058 17.0746C148.058 17.0746 148.266 16.7832 148.787 17.2665C148.971 17.4371 149.176 17.5854 149.396 17.7082C149.693 17.8727 150.037 17.9363 150.374 17.8893C150.374 17.8893 152.445 18.2857 154.831 16.0572C154.831 16.0572 155.68 15.7857 155.76 15.6264L154.508 15.4019C154.508 15.4019 154.377 16.3197 153.73 16.7307C153.73 16.7307 154.53 15.4526 154.322 15.3603C154.28 15.3404 153.655 15.2698 153.655 15.2698C153.655 15.2698 153.42 16.8664 152.399 17.4693C152.399 17.4693 153.56 16.0735 153.416 15.2408L152.463 15.1901C152.463 15.1901 152.301 16.89 151.163 17.6213C151.163 17.6213 152.326 16.1206 152.257 15.1937L151.313 15.2698C151.313 15.2698 151.131 16.9226 150.172 17.5236C150.172 17.5236 151.338 15.6554 151.098 15.3005C151.098 15.3005 150.236 15.4218 150.023 15.563C150.023 15.563 149.858 16.747 149.275 17.0475C149.275 17.0475 149.92 15.7169 149.789 15.6246C149.789 15.6246 148.708 16.079 148.284 16.5967C148.651 16.101 149.142 15.7091 149.709 15.4598C149.356 15.3143 148.969 15.274 148.594 15.344C148.594 15.344 149.058 14.8263 149.973 15.353C149.973 15.353 150.828 15.0326 150.974 15.0724C150.974 15.0724 150.145 14.4262 149.458 14.3139C149.458 14.3139 150.285 14.0786 151.224 15.0381L152.17 14.9421C152.17 14.9421 151.12 14.037 150.515 13.8849C150.515 13.8849 151.395 13.7745 152.41 14.9367L153.345 14.9783C153.345 14.9783 152.499 14.1239 151.863 13.8161C151.863 13.8161 152.702 13.8885 153.611 14.9982L154.233 15.0978C154.233 15.0978 153.604 14.4859 153.407 14.3266C153.21 14.1673 153.239 14.1148 153.239 14.1148C153.746 14.3382 154.18 14.6966 154.493 15.1503C154.493 15.1503 155.756 15.4327 155.78 15.3585Z" fill="#6C63FF"/>
<path opacity="0.1" d="M160.078 45.1956C160.078 45.1956 158.161 38.5645 153.848 40.9451C153.848 40.9451 152.984 41.0772 152.877 41.9353C152.877 41.9353 153.22 41.8285 153.338 42.5218C153.382 42.7709 153.455 43.014 153.557 43.2459C153.692 43.5579 153.926 43.8173 154.224 43.9845C154.224 43.9845 155.635 45.5414 158.89 45.1938C158.89 45.1938 159.732 45.4871 159.892 45.4074L159.03 44.4769C159.03 44.4769 158.368 45.1323 157.603 45.0707C157.603 45.0707 159.017 44.5276 158.908 44.3339C158.886 44.2941 158.43 43.8614 158.43 43.8614C158.43 43.8614 157.275 44.9947 156.094 44.8625C156.094 44.8625 157.867 44.4462 158.257 43.6967L157.528 43.0848C157.528 43.0848 156.365 44.3412 155.015 44.2434C155.015 44.2434 156.852 43.742 157.359 42.9617L156.56 42.4567C156.56 42.4567 155.403 43.6605 154.28 43.57C154.28 43.57 156.345 42.7789 156.371 42.3535C156.371 42.3535 155.609 41.9335 155.352 41.919C155.352 41.919 154.501 42.7626 153.854 42.654C153.854 42.654 155.177 41.9787 155.13 41.8267C155.13 41.8267 153.992 41.5425 153.338 41.7C153.931 41.5254 154.559 41.5073 155.161 41.6475C154.968 41.3199 154.683 41.0556 154.341 40.8871C154.341 40.8871 155.026 40.7514 155.434 41.7199C155.434 41.7199 156.311 41.9769 156.402 42.0964C156.402 42.0964 156.134 41.0845 155.655 40.583C155.655 40.583 156.457 40.8908 156.619 42.2231L157.432 42.7137C157.432 42.7137 157.147 41.356 156.754 40.8781C156.754 40.8781 157.523 41.318 157.627 42.8531L158.356 43.4451C158.356 43.4451 158.201 42.2575 157.88 41.6348C157.88 41.6348 158.505 42.196 158.556 43.6261L158.99 44.0787C158.99 44.0787 158.862 43.2134 158.808 42.9672C158.753 42.721 158.808 42.6866 158.808 42.6866C159.077 43.1681 159.207 43.7147 159.181 44.2651C159.181 44.2651 160.012 45.2391 160.078 45.1956Z" fill="#6C63FF"/>
<path opacity="0.1" d="M117.353 60.1377C117.353 60.1377 113.629 54.3122 110.172 57.7988C110.172 57.7988 109.381 58.1609 109.519 59.0208C109.519 59.0208 109.82 58.8216 110.13 59.4552C110.241 59.6798 110.379 59.8901 110.542 60.0816C110.759 60.343 111.057 60.5262 111.389 60.603C111.389 60.603 113.184 61.7036 116.21 60.4581C116.21 60.4581 117.101 60.5052 117.233 60.3839L116.139 59.7322C116.139 59.7322 115.689 60.5469 114.936 60.7007C114.936 60.7007 116.143 59.7956 115.98 59.629C115.949 59.5965 115.388 59.3104 115.388 59.3104C115.388 59.3104 114.599 60.7188 113.429 60.9234C113.429 60.9234 115.013 60.0273 115.177 59.1982L114.304 58.8162C114.304 58.8162 113.544 60.3459 112.22 60.6265C112.22 60.6265 113.842 59.6327 114.107 58.742L113.195 58.4813C113.195 58.4813 112.426 59.9603 111.324 60.1866C111.324 60.1866 113.081 58.8506 112.984 58.4342C112.984 58.4342 112.135 58.2442 111.89 58.3021C111.89 58.3021 111.313 59.3502 110.66 59.4263C110.66 59.4263 111.739 58.4089 111.65 58.2749C111.65 58.2749 110.478 58.3202 109.895 58.6551C110.415 58.3203 111.014 58.1268 111.633 58.0939C111.356 57.8334 111.008 57.6591 110.633 57.5925C110.633 57.5925 111.251 57.272 111.909 58.0867C111.909 58.0867 112.82 58.0867 112.946 58.1772C112.946 58.1772 112.399 57.272 111.799 56.9335C111.799 56.9335 112.656 57.0059 113.188 58.2387L114.109 58.4813C114.109 58.4813 113.451 57.2594 112.938 56.91C112.938 56.91 113.801 57.1164 114.335 58.5628L115.195 58.9248C115.195 58.9248 114.71 57.8296 114.223 57.3173C114.223 57.3173 114.982 57.6794 115.435 59.0389L115.982 59.3521C115.982 59.3521 115.618 58.5573 115.488 58.3383C115.359 58.1193 115.41 58.0686 115.41 58.0686C115.804 58.4555 116.083 58.9438 116.214 59.4788C116.214 59.4788 117.304 60.1993 117.353 60.1377Z" fill="#6C63FF"/>
<path d="M141.825 30.373C141.825 30.373 138.283 24.4371 134.716 27.8151C134.716 27.8151 133.915 28.159 134.028 29.0171C134.028 29.0171 134.332 28.8252 134.623 29.4679C134.728 29.6963 134.859 29.9115 135.015 30.1087C135.225 30.3757 135.517 30.5666 135.846 30.6518C135.846 30.6518 137.605 31.8067 140.669 30.6518C140.669 30.6518 141.559 30.726 141.693 30.6083L140.624 29.924C140.624 29.924 140.15 30.7224 139.391 30.8545C139.391 30.8545 140.625 29.9802 140.47 29.8154C140.438 29.781 139.887 29.4769 139.887 29.4769C139.887 29.4769 139.054 30.8618 137.882 31.0301C137.882 31.0301 139.494 30.1829 139.681 29.361L138.821 28.9592C138.821 28.9592 138.014 30.4671 136.681 30.7079C136.681 30.7079 138.334 29.7647 138.626 28.8831L137.726 28.5935C137.726 28.5935 136.909 30.0417 135.801 30.2408C135.801 30.2408 137.598 28.9592 137.514 28.541C137.514 28.541 136.672 28.3238 136.421 28.3744C136.421 28.3744 135.81 29.4045 135.156 29.4606C135.156 29.4606 136.266 28.4794 136.182 28.3419C136.182 28.3419 135.008 28.3509 134.416 28.6677C134.946 28.3498 135.551 28.1751 136.171 28.1608C135.901 27.8917 135.559 27.7067 135.185 27.6286C135.185 27.6286 135.814 27.3263 136.461 28.1608C136.461 28.1608 137.372 28.1916 137.494 28.2839C137.494 28.2839 136.978 27.3788 136.388 27.0059C136.388 27.0059 137.241 27.1036 137.735 28.3527L138.646 28.6243C138.646 28.6243 138.028 27.3824 137.525 27.0167C137.525 27.0167 138.382 27.2503 138.87 28.7112L139.718 29.104C139.718 29.104 139.268 27.9943 138.806 27.4747C138.806 27.4747 139.552 27.8603 139.966 29.2325L140.5 29.562C140.5 29.562 140.157 28.7564 140.037 28.5337C139.916 28.3111 139.967 28.2622 139.967 28.2622C140.349 28.661 140.613 29.1574 140.727 29.696C140.727 29.696 141.772 30.4327 141.825 30.373Z" fill="#6C63FF"/>
<path d="M119.419 42.8549C119.419 42.8549 119.602 35.9577 114.777 36.9299C114.777 36.9299 113.913 36.7977 113.549 37.5834C113.549 37.5834 113.913 37.5834 113.811 38.2803C113.778 38.5288 113.774 38.7804 113.8 39.0298C113.833 39.368 113.977 39.6861 114.21 39.9349C114.21 39.9349 115.08 41.843 118.289 42.4911C118.289 42.4911 119.002 43.0251 119.181 42.9961L118.634 41.852C118.634 41.852 117.805 42.2756 117.092 41.9878C117.092 41.9878 118.605 41.8991 118.563 41.6782C118.563 41.633 118.249 41.0827 118.249 41.0827C118.249 41.0827 116.802 41.8158 115.718 41.3343C115.718 41.3343 117.54 41.4701 118.136 40.8745L117.628 40.0725C117.628 40.0725 116.137 40.9197 114.879 40.4201C114.879 40.4201 116.784 40.4961 117.506 39.9042L116.899 39.18C116.899 39.18 115.428 39.9802 114.385 39.5566C114.385 39.5566 116.594 39.4244 116.755 39.0244C116.755 39.0244 116.157 38.3962 115.916 38.3002C115.916 38.3002 114.848 38.8433 114.265 38.5501C114.265 38.5501 115.723 38.3075 115.732 38.1464C115.732 38.1464 114.735 37.5327 114.063 37.4874C114.683 37.4984 115.289 37.6707 115.822 37.9871C115.739 37.617 115.549 37.2792 115.275 37.0149C115.275 37.0149 115.969 37.0928 116.064 38.1373C116.064 38.1373 116.824 38.6478 116.873 38.789C116.873 38.789 116.926 37.7445 116.622 37.1217C116.622 37.1217 117.292 37.6558 117.041 38.9737L117.666 39.6869C117.666 39.6869 117.808 38.3075 117.58 37.7336C117.58 37.7336 118.178 38.3835 117.81 39.8788L118.315 40.6591C118.315 40.6591 118.53 39.4806 118.415 38.7872C118.415 38.7872 118.838 39.5113 118.452 40.889L118.729 41.4501C118.729 41.4501 118.869 40.5866 118.887 40.335C118.905 40.0834 118.975 40.0671 118.975 40.0671C119.084 40.6071 119.041 41.1668 118.849 41.6837C118.849 41.6837 119.339 42.8785 119.419 42.8549Z" fill="#6C63FF"/>
<path opacity="0.1" d="M127.395 130.495C130.105 130.495 132.303 130.126 132.303 129.671C132.303 129.216 130.105 128.847 127.395 128.847C124.684 128.847 122.486 129.216 122.486 129.671C122.486 130.126 124.684 130.495 127.395 130.495Z" fill="#6C63FF"/>
<path opacity="0.1" d="M109.503 143C112.214 143 114.411 142.631 114.411 142.176C114.411 141.721 112.214 141.353 109.503 141.353C106.792 141.353 104.595 141.721 104.595 142.176C104.595 142.631 106.792 143 109.503 143Z" fill="#6C63FF"/>
<path opacity="0.1" d="M16.9757 136.593C19.6865 136.593 21.884 136.225 21.884 135.77C21.884 135.315 19.6865 134.946 16.9757 134.946C14.2649 134.946 12.0674 135.315 12.0674 135.77C12.0674 136.225 14.2649 136.593 16.9757 136.593Z" fill="#6C63FF"/>
<path opacity="0.1" d="M146.732 142.176C149.442 142.176 151.64 141.808 151.64 141.353C151.64 140.898 149.442 140.529 146.732 140.529C144.021 140.529 141.823 140.898 141.823 141.353C141.823 141.808 144.021 142.176 146.732 142.176Z" fill="#6C63FF"/>
<path d="M151.841 132.133C155.889 132.133 159.17 131.582 159.17 130.902C159.17 130.222 155.889 129.671 151.841 129.671C147.794 129.671 144.513 130.222 144.513 130.902C144.513 131.582 147.794 132.133 151.841 132.133Z" fill="#6C63FF"/>
<path d="M154.88 128.887C155.214 128.617 155.458 128.252 155.578 127.841C155.669 127.424 155.49 126.926 155.091 126.774C154.643 126.604 154.164 126.912 153.799 127.223C153.434 127.535 153.021 127.891 152.545 127.826C152.789 127.606 152.972 127.327 153.075 127.015C153.179 126.704 153.2 126.372 153.136 126.05C153.115 125.917 153.058 125.792 152.972 125.688C152.722 125.424 152.272 125.538 151.973 125.746C151.025 126.409 150.761 127.687 150.755 128.838C150.66 128.424 150.741 127.991 150.739 127.571C150.737 127.151 150.619 126.666 150.256 126.445C150.033 126.322 149.782 126.259 149.527 126.264C149.1 126.249 148.625 126.291 148.335 126.601C147.97 126.984 148.067 127.631 148.38 128.049C148.694 128.467 149.173 128.737 149.614 129.03C149.967 129.239 150.269 129.525 150.496 129.865C150.522 129.912 150.544 129.962 150.56 130.013H153.232C153.83 129.714 154.385 129.335 154.88 128.887Z" fill="#6C63FF"/>
<path d="M13.6807 131.941C13.6807 131.941 16.4784 131.856 17.3259 131.258C18.1734 130.661 21.6327 129.95 21.8423 130.907C22.0519 131.865 26.0489 135.667 22.8885 135.692C19.7281 135.717 15.5452 135.203 14.7032 134.693C13.8611 134.182 13.6807 131.941 13.6807 131.941Z" fill="#A8A8A8"/>
<path opacity="0.2" d="M22.9414 135.359C19.781 135.384 15.5981 134.87 14.756 134.36C14.1144 133.972 13.8593 132.58 13.7736 131.937H13.6807C13.6807 131.937 13.8629 134.18 14.6995 134.689C15.5361 135.198 19.7244 135.714 22.8849 135.688C23.7962 135.688 24.1115 135.359 24.0951 134.881C23.9675 135.172 23.6194 135.353 22.9414 135.359Z" fill="black"/>
</g>
<defs>
<linearGradient id="paint0_linear" x1="40.642" y1="78.4615" x2="97.5312" y2="78.4615" gradientUnits="userSpaceOnUse">
<stop stop-color="#808080" stop-opacity="0.25"/>
<stop offset="0.54" stop-color="#808080" stop-opacity="0.12"/>
<stop offset="1" stop-color="#808080" stop-opacity="0.1"/>
</linearGradient>
<clipPath id="clip0">
<rect width="184" height="143" fill="white"/>
</clipPath>
</defs>
</svg>
