<svg width="16" height="18" viewBox="0 0 16 18" fill="none" xmlns="http://www.w3.org/2000/svg">
<path d="M14.8277 14.3245C14.7748 14.2902 14.3766 14.0112 13.9779 13.1673C13.2456 11.6175 13.0919 9.43439 13.0919 7.87588C13.0919 7.86909 13.0918 7.86238 13.0915 7.85563C13.0835 5.79586 11.8501 4.02026 10.0852 3.22358V2.00517C10.0852 0.899508 9.18713 0 8.0833 0H7.91739C6.81356 0 5.91553 0.899508 5.91553 2.00517V3.22351C4.14464 4.02275 2.90879 5.80743 2.90879 7.87588C2.90879 9.43439 2.75508 11.6175 2.02282 13.1673C1.62411 14.0112 1.22589 14.2901 1.17295 14.3245C0.949987 14.4277 0.840053 14.6661 0.891346 14.9076C0.943132 15.1516 1.17116 15.3198 1.42017 15.3198H5.28549C5.30708 16.8013 6.51624 18 8.00036 18C9.48448 18 10.6936 16.8013 10.7152 15.3198H14.5806C14.8295 15.3198 15.0576 15.1516 15.1094 14.9076C15.1606 14.6661 15.0507 14.4277 14.8277 14.3245ZM6.97025 2.00517C6.97025 1.48201 7.39515 1.05641 7.91743 1.05641H8.08333C8.60561 1.05641 9.03051 1.48201 9.03051 2.00517V2.88116C8.69765 2.81236 8.35309 2.77615 8.00022 2.77615C7.64746 2.77615 7.303 2.81232 6.97028 2.88105V2.00517H6.97025ZM8.00036 16.9436C7.0978 16.9436 6.36159 16.2188 6.34018 15.3198H9.66051C9.63914 16.2187 8.90293 16.9436 8.00036 16.9436ZM10.1238 14.2633C10.1237 14.2633 2.62198 14.2633 2.62198 14.2633C2.71321 14.1211 2.80606 13.9602 2.89835 13.7782C3.60513 12.3845 3.96351 10.3987 3.96351 7.87588C3.96351 5.64637 5.77437 3.83256 8.00019 3.83256C10.226 3.83256 12.0369 5.64637 12.0369 7.87764C12.0369 7.88414 12.037 7.89061 12.0372 7.89708C12.0392 10.4098 12.3976 12.3885 13.1024 13.7782C13.1947 13.9602 13.2875 14.1211 13.3787 14.2633H10.1238Z" fill="white"/>
</svg>
