<svg width="50" height="50" viewBox="0 0 50 50" fill="none" xmlns="http://www.w3.org/2000/svg">
<path d="M42.6776 7.32227C37.9558 2.60049 31.6777 0 25 0C18.3222 0 12.044 2.60049 7.32227 7.32227C2.60039 12.0441 0 18.3223 0 25C0 31.6777 2.60039 37.9558 7.32227 42.6776C12.0441 47.3995 18.3222 50 25 50C31.6777 50 37.9558 47.3995 42.6776 42.6776C47.3995 37.9558 50 31.6777 50 25C50 18.3223 47.3995 12.0442 42.6776 7.32227ZM25 47.0703C12.8304 47.0703 2.92969 37.1696 2.92969 25C2.92969 12.8304 12.8304 2.92969 25 2.92969C37.1696 2.92969 47.0703 12.8304 47.0703 25C47.0703 37.1696 37.1696 47.0703 25 47.0703Z" fill="#00BB29"/>
<path d="M36.9438 16.9787C36.3718 16.4068 35.4443 16.4068 34.8723 16.9788L21.9369 29.9142L15.1276 23.105C14.5556 22.533 13.6281 22.533 13.056 23.105C12.4839 23.6769 12.4839 24.6045 13.056 25.1765L20.901 33.0216C21.1871 33.3076 21.562 33.4506 21.9368 33.4506C22.3116 33.4506 22.6866 33.3075 22.9725 33.0216L36.9438 19.0503C37.5159 18.4783 37.5159 17.5508 36.9438 16.9787Z" fill="#00BB29"/>
</svg>
