<svg width="16" height="17" viewBox="0 0 16 17" fill="none" xmlns="http://www.w3.org/2000/svg">
<path d="M15.8045 15.4429L11.2545 10.8929C12.1359 9.8043 12.6665 8.42097 12.6665 6.91433C12.6665 3.42237 9.82522 0.581055 6.33325 0.581055C2.84128 0.581055 0 3.42234 0 6.9143C0 10.4063 2.84132 13.2476 6.33328 13.2476C7.83992 13.2476 9.22325 12.7169 10.3119 11.8356L14.8619 16.3855C14.9919 16.5155 15.1625 16.5809 15.3332 16.5809C15.5039 16.5809 15.6745 16.5155 15.8045 16.3855C16.0652 16.1249 16.0652 15.7036 15.8045 15.4429ZM6.33328 11.9143C3.57597 11.9143 1.33333 9.67162 1.33333 6.9143C1.33333 4.15699 3.57597 1.91435 6.33328 1.91435C9.0906 1.91435 11.3332 4.15699 11.3332 6.9143C11.3332 9.67162 9.09057 11.9143 6.33328 11.9143Z" fill="#858585"/>
</svg>
