<svg width="49" height="48" viewBox="0 0 49 48" fill="none" xmlns="http://www.w3.org/2000/svg">
<path d="M0 0H46C47.6569 0 49 1.34315 49 3V45C49 46.6569 47.6569 48 46 48H0V0Z" fill="#E94E1B"/>
<g clip-path="url(#clip0)">
<path d="M33.8045 30.8628L29.2545 26.3128C30.1359 25.2242 30.6665 23.8408 30.6665 22.3342C30.6665 18.8422 27.8252 16.0009 24.3333 16.0009C20.8413 16.0009 18 18.8422 18 22.3342C18 25.8261 20.8413 28.6674 24.3333 28.6674C25.8399 28.6674 27.2233 28.1368 28.3119 27.2555L32.8619 31.8054C32.9919 31.9354 33.1625 32.0008 33.3332 32.0008C33.5039 32.0008 33.6745 31.9354 33.8045 31.8054C34.0652 31.5448 34.0652 31.1234 33.8045 30.8628ZM24.3333 27.3341C21.576 27.3341 19.3333 25.0915 19.3333 22.3342C19.3333 19.5768 21.576 17.3342 24.3333 17.3342C27.0906 17.3342 29.3332 19.5768 29.3332 22.3342C29.3332 25.0915 27.0906 27.3341 24.3333 27.3341Z" fill="white"/>
</g>
<defs>
<clipPath id="clip0">
<path d="M18 16H34V32H18V16Z" fill="white"/>
</clipPath>
</defs>
</svg>
