<svg width="40" height="40" viewBox="0 0 40 40" fill="none" xmlns="http://www.w3.org/2000/svg">
<g clip-path="url(#clip0)">
<path d="M30.1885 21.2161C30.1885 26.8201 25.6458 31.3628 20.0418 31.3628C14.438 31.3628 9.89502 26.8201 9.89502 21.2161C9.89502 15.6123 14.438 11.0693 20.0418 11.0693C25.6458 11.0693 30.1885 15.6123 30.1885 21.2161Z" fill="#FFE475"/>
<path d="M29.6969 29.5269C26.5805 33.1509 21.6975 34.7256 17.0512 33.6045C12.4047 32.4837 8.777 28.8558 7.65588 24.2095C6.53509 19.5629 8.1095 14.6799 11.7336 11.5635C7.37781 16.6149 7.65686 24.1709 12.3732 28.8872C17.0896 33.6036 24.6455 33.8826 29.6969 29.5269Z" fill="#CDA700"/>
<path d="M21.3862 21.2156C21.3862 21.9564 20.7855 22.5571 20.0447 22.5571C19.3038 22.5571 18.7031 21.9564 18.7031 21.2156C18.7031 20.4747 19.3038 19.874 20.0447 19.874C20.7855 19.874 21.3862 20.4747 21.3862 21.2156Z" fill="white"/>
<path d="M20.0399 7.79883C12.631 7.79883 6.62451 13.8053 6.62451 21.2142C6.62451 28.6235 12.631 34.6296 20.0399 34.6296C27.4491 34.6296 33.4553 28.6235 33.4553 21.2142C33.4468 13.8086 27.4455 7.80734 20.0399 7.79883ZM20.0399 33.2881C13.3718 33.2881 7.96605 27.8826 7.96605 21.2142C7.96605 14.5462 13.3718 9.14037 20.0399 9.14037C26.7083 9.14037 32.1137 14.5462 32.1137 21.2142C32.1062 27.8793 26.705 33.2802 20.0399 33.2881Z" fill="#363636"/>
<path d="M20.7154 19.3269V13.1665H19.3738V19.3269C18.8059 19.53 18.3588 19.977 18.1558 20.545H13.3369V21.8865H18.1558C18.4659 22.7695 19.3453 23.3211 20.2755 23.2159C21.2057 23.1108 21.9397 22.3768 22.0448 21.4466C22.1499 20.5165 21.5984 19.6371 20.7154 19.3269ZM20.0446 21.8865C19.6742 21.8865 19.3738 21.5862 19.3738 21.2157C19.3738 20.8453 19.6742 20.545 20.0446 20.545C20.415 20.545 20.7154 20.8453 20.7154 21.2157C20.7154 21.5862 20.415 21.8865 20.0446 21.8865Z" fill="#363636"/>
<path d="M9.31201 20.5449H10.6535V21.8865H9.31201V20.5449Z" fill="#363636"/>
<path d="M19.374 30.6064H20.7156V31.948H19.374V30.6064Z" fill="#363636"/>
<path d="M29.4355 20.5449H30.7771V21.8865H29.4355V20.5449Z" fill="#363636"/>
<path d="M19.374 10.4834H20.7156V11.8249H19.374V10.4834Z" fill="#363636"/>
<path d="M37.4846 21.2157C37.4862 30.6536 29.9797 38.3802 20.5457 38.6514C11.1117 38.9226 3.17384 31.6398 2.63343 22.2173C2.09268 12.795 9.14592 4.65215 18.5488 3.84284L16.9436 5.7559L17.9714 6.61795L20.5585 3.53234C20.7966 3.24838 20.7599 2.82522 20.476 2.58711L17.3904 0L16.5306 1.0317L18.3005 2.518C8.19806 3.46029 0.670246 12.2559 1.29942 22.383C1.92827 32.51 10.4871 40.3064 20.6286 39.991C30.77 39.6756 38.8278 31.3624 38.8261 21.2157H37.4846Z" fill="#363636"/>
<path d="M37.1152 17.6301L38.4285 17.3556C38.3339 16.9036 38.2212 16.45 38.0932 16.0059L36.8037 16.3769C36.9226 16.7886 37.0271 17.2108 37.1152 17.6301Z" fill="#363636"/>
<path d="M36.4008 15.1505L37.6591 14.6845C37.4987 14.2525 37.3238 13.8204 37.1279 13.3999L35.9082 13.9587C36.0867 14.3491 36.2531 14.7493 36.4008 15.1505Z" fill="#363636"/>
<path d="M35.328 12.8063L36.5024 12.1585C36.2791 11.756 36.0383 11.3534 35.7868 10.9673L34.6631 11.6996C34.8966 12.0579 35.1206 12.4287 35.328 12.8063Z" fill="#363636"/>
<path d="M37.4549 20.189L38.7964 20.1097C38.7689 19.6476 38.7247 19.1821 38.6624 18.7266L37.332 18.9031C37.3877 19.3263 37.4287 19.7589 37.4549 20.189Z" fill="#363636"/>
<path d="M33.9183 10.6458L34.9847 9.8316C34.7043 9.46444 34.4073 9.10351 34.1014 8.7583L33.0952 9.64818C33.3825 9.96948 33.6615 10.3049 33.9183 10.6458Z" fill="#363636"/>
<path d="M28.6416 4.51355C28.2325 4.3023 27.8087 4.10316 27.382 3.92139L26.8569 5.15615C27.2532 5.3245 27.6463 5.50955 28.0265 5.70541L28.6416 4.51355Z" fill="#363636"/>
<path d="M26.0815 3.4261C25.6449 3.27741 25.1962 3.14378 24.7475 3.02783L24.4121 4.32646C24.8281 4.43356 25.2444 4.55835 25.6495 4.69591L26.0815 3.4261Z" fill="#363636"/>
<path d="M33.1407 7.75326C32.8095 7.43065 32.462 7.11721 32.1083 6.8208L31.2466 7.84857C31.5751 8.12402 31.8977 8.41519 32.2049 8.71454L33.1407 7.75326Z" fill="#363636"/>
<path d="M23.3901 2.73053C22.9372 2.64897 22.4737 2.58314 22.0129 2.53467L21.874 3.86965C22.3021 3.91387 22.7321 3.97479 23.1484 4.05077L23.3901 2.73053Z" fill="#363636"/>
<path d="M31.0112 5.96727C30.6355 5.69903 30.2458 5.43799 29.8534 5.19727L29.1519 6.3377C29.5167 6.56173 29.8783 6.80245 30.2251 7.05399L31.0112 5.96727Z" fill="#363636"/>
</g>
<defs>
<clipPath id="clip0">
<rect width="40" height="40" fill="white"/>
</clipPath>
</defs>
</svg>
