<svg width="1366" height="662" viewBox="0 0 1366 662" fill="none" xmlns="http://www.w3.org/2000/svg">
<path d="M47.9488 131.325C47.8959 131.29 47.4977 131.011 47.099 130.167C46.3667 128.618 46.213 126.434 46.213 124.876C46.213 124.869 46.2129 124.862 46.2126 124.856C46.2046 122.796 44.9712 121.02 43.2063 120.224V119.005C43.2063 117.9 42.3082 117 41.2044 117H41.0385C39.9347 117 39.0366 117.9 39.0366 119.005V120.224C37.2657 121.023 36.0299 122.807 36.0299 124.876C36.0299 126.434 35.8762 128.617 35.1439 130.167C34.7452 131.011 34.347 131.29 34.294 131.325C34.0711 131.428 33.9611 131.666 34.0124 131.908C34.0642 132.152 34.2922 132.32 34.5413 132.32H38.4066C38.4282 133.801 39.6373 135 41.1215 135C42.6056 135 43.8147 133.801 43.8363 132.32H47.7017C47.9506 132.32 48.1787 132.152 48.2305 131.908C48.2817 131.666 48.1718 131.428 47.9488 131.325ZM40.0913 119.005C40.0913 118.482 40.5162 118.056 41.0385 118.056H41.2044C41.7267 118.056 42.1516 118.482 42.1516 119.005V119.881C41.8187 119.812 41.4742 119.776 41.1213 119.776C40.7686 119.776 40.4241 119.812 40.0914 119.881V119.005H40.0913ZM41.1215 133.944C40.2189 133.944 39.4827 133.219 39.4613 132.32H42.7816C42.7602 133.219 42.024 133.944 41.1215 133.944ZM43.2449 131.263C43.2448 131.263 35.7431 131.263 35.7431 131.263C35.8343 131.121 35.9272 130.96 36.0194 130.778C36.7262 129.385 37.0846 127.399 37.0846 124.876C37.0846 122.646 38.8955 120.833 41.1213 120.833C43.3471 120.833 45.158 122.646 45.158 124.878C45.158 124.884 45.1581 124.891 45.1583 124.897C45.1603 127.41 45.5187 129.388 46.2235 130.778C46.3158 130.96 46.4086 131.121 46.4998 131.263H43.2449Z" fill="#E94E1B"/>
<path d="M47.9488 155.325C47.8959 155.29 47.4977 155.011 47.099 154.167C46.3667 152.618 46.213 150.434 46.213 148.876C46.213 148.869 46.2129 148.862 46.2126 148.856C46.2046 146.796 44.9712 145.02 43.2063 144.224V143.005C43.2063 141.9 42.3082 141 41.2044 141H41.0385C39.9347 141 39.0366 141.9 39.0366 143.005V144.224C37.2657 145.023 36.0299 146.807 36.0299 148.876C36.0299 150.434 35.8762 152.617 35.1439 154.167C34.7452 155.011 34.347 155.29 34.294 155.325C34.0711 155.428 33.9611 155.666 34.0124 155.908C34.0642 156.152 34.2922 156.32 34.5413 156.32H38.4066C38.4282 157.801 39.6373 159 41.1215 159C42.6056 159 43.8147 157.801 43.8363 156.32H47.7017C47.9506 156.32 48.1787 156.152 48.2305 155.908C48.2817 155.666 48.1718 155.428 47.9488 155.325ZM40.0913 143.005C40.0913 142.482 40.5162 142.056 41.0385 142.056H41.2044C41.7267 142.056 42.1516 142.482 42.1516 143.005V143.881C41.8187 143.812 41.4742 143.776 41.1213 143.776C40.7686 143.776 40.4241 143.812 40.0914 143.881V143.005H40.0913ZM41.1215 157.944C40.2189 157.944 39.4827 157.219 39.4613 156.32H42.7816C42.7602 157.219 42.024 157.944 41.1215 157.944ZM43.2449 155.263C43.2448 155.263 35.7431 155.263 35.7431 155.263C35.8343 155.121 35.9272 154.96 36.0194 154.778C36.7262 153.385 37.0846 151.399 37.0846 148.876C37.0846 146.646 38.8955 144.833 41.1213 144.833C43.3471 144.833 45.158 146.646 45.158 148.878C45.158 148.884 45.1581 148.891 45.1583 148.897C45.1603 151.41 45.5187 153.388 46.2235 154.778C46.3158 154.96 46.4086 155.121 46.4998 155.263H43.2449Z" fill="#CDD1D3"/>
<path d="M47.9488 179.325C47.8959 179.29 47.4977 179.011 47.099 178.167C46.3667 176.618 46.213 174.434 46.213 172.876C46.213 172.869 46.2129 172.862 46.2126 172.856C46.2046 170.796 44.9712 169.02 43.2063 168.224V167.005C43.2063 165.9 42.3082 165 41.2044 165H41.0385C39.9347 165 39.0366 165.9 39.0366 167.005V168.224C37.2657 169.023 36.0299 170.807 36.0299 172.876C36.0299 174.434 35.8762 176.617 35.1439 178.167C34.7452 179.011 34.347 179.29 34.294 179.325C34.0711 179.428 33.9611 179.666 34.0124 179.908C34.0642 180.152 34.2922 180.32 34.5413 180.32H38.4066C38.4282 181.801 39.6373 183 41.1215 183C42.6056 183 43.8147 181.801 43.8363 180.32H47.7017C47.9506 180.32 48.1787 180.152 48.2305 179.908C48.2817 179.666 48.1718 179.428 47.9488 179.325ZM40.0913 167.005C40.0913 166.482 40.5162 166.056 41.0385 166.056H41.2044C41.7267 166.056 42.1516 166.482 42.1516 167.005V167.881C41.8187 167.812 41.4742 167.776 41.1213 167.776C40.7686 167.776 40.4241 167.812 40.0914 167.881V167.005H40.0913ZM41.1215 181.944C40.2189 181.944 39.4827 181.219 39.4613 180.32H42.7816C42.7602 181.219 42.024 181.944 41.1215 181.944ZM43.2449 179.263C43.2448 179.263 35.7431 179.263 35.7431 179.263C35.8343 179.121 35.9272 178.96 36.0194 178.778C36.7262 177.385 37.0846 175.399 37.0846 172.876C37.0846 170.646 38.8955 168.833 41.1213 168.833C43.3471 168.833 45.158 170.646 45.158 172.878C45.158 172.884 45.1581 172.891 45.1583 172.897C45.1603 175.41 45.5187 177.388 46.2235 178.778C46.3158 178.96 46.4086 179.121 46.4998 179.263H43.2449Z" fill="white"/>
<path d="M47.9488 203.325C47.8959 203.29 47.4977 203.011 47.099 202.167C46.3667 200.618 46.213 198.434 46.213 196.876C46.213 196.869 46.2129 196.862 46.2126 196.856C46.2046 194.796 44.9712 193.02 43.2063 192.224V191.005C43.2063 189.9 42.3082 189 41.2044 189H41.0385C39.9347 189 39.0366 189.9 39.0366 191.005V192.224C37.2657 193.023 36.0299 194.807 36.0299 196.876C36.0299 198.434 35.8762 200.617 35.1439 202.167C34.7452 203.011 34.347 203.29 34.294 203.325C34.0711 203.428 33.9611 203.666 34.0124 203.908C34.0642 204.152 34.2922 204.32 34.5413 204.32H38.4066C38.4282 205.801 39.6373 207 41.1215 207C42.6056 207 43.8147 205.801 43.8363 204.32H47.7017C47.9506 204.32 48.1787 204.152 48.2305 203.908C48.2817 203.666 48.1718 203.428 47.9488 203.325ZM40.0913 191.005C40.0913 190.482 40.5162 190.056 41.0385 190.056H41.2044C41.7267 190.056 42.1516 190.482 42.1516 191.005V191.881C41.8187 191.812 41.4742 191.776 41.1213 191.776C40.7686 191.776 40.4241 191.812 40.0914 191.881V191.005H40.0913ZM41.1215 205.944C40.2189 205.944 39.4827 205.219 39.4613 204.32H42.7816C42.7602 205.219 42.024 205.944 41.1215 205.944ZM43.2449 203.263C43.2448 203.263 35.7431 203.263 35.7431 203.263C35.8343 203.121 35.9272 202.96 36.0194 202.778C36.7262 201.385 37.0846 199.399 37.0846 196.876C37.0846 194.646 38.8955 192.833 41.1213 192.833C43.3471 192.833 45.158 194.646 45.158 196.878C45.158 196.884 45.1581 196.891 45.1583 196.897C45.1603 199.41 45.5187 201.388 46.2235 202.778C46.3158 202.96 46.4086 203.121 46.4998 203.263H43.2449Z" fill="#E45400"/>
<path d="M66.7994 128.637H66.8002C66.8009 128.637 66.8016 128.637 66.8023 128.637H76.3633C76.5987 128.637 76.8056 128.481 76.8703 128.254L78.9797 120.871C79.0251 120.712 78.9933 120.541 78.8937 120.409C78.794 120.277 78.6381 120.199 78.4727 120.199H65.5832L65.2063 118.503C65.1526 118.262 64.9386 118.09 64.6914 118.09H61.5273C61.2361 118.09 61 118.326 61 118.617C61 118.908 61.2361 119.145 61.5273 119.145H64.2684C64.3352 119.445 66.0724 127.263 66.1724 127.712C65.6119 127.956 65.2188 128.515 65.2188 129.164C65.2188 130.036 65.9285 130.746 66.8008 130.746H76.3633C76.6546 130.746 76.8906 130.51 76.8906 130.219C76.8906 129.927 76.6546 129.691 76.3633 129.691H66.8008C66.5101 129.691 66.2734 129.455 66.2734 129.164C66.2734 128.874 66.5092 128.638 66.7994 128.637ZM77.7735 121.254L75.9654 127.582H67.2238L65.8175 121.254H77.7735Z" fill="white"/>
<path d="M66.2734 132.328C66.2734 133.2 66.9832 133.91 67.8555 133.91C68.7278 133.91 69.4375 133.2 69.4375 132.328C69.4375 131.456 68.7278 130.746 67.8555 130.746C66.9832 130.746 66.2734 131.456 66.2734 132.328ZM67.8555 131.801C68.1462 131.801 68.3828 132.037 68.3828 132.328C68.3828 132.619 68.1462 132.855 67.8555 132.855C67.5647 132.855 67.3281 132.619 67.3281 132.328C67.3281 132.037 67.5647 131.801 67.8555 131.801Z" fill="white"/>
<path d="M73.7266 132.328C73.7266 133.2 74.4363 133.91 75.3086 133.91C76.1809 133.91 76.8906 133.2 76.8906 132.328C76.8906 131.456 76.1809 130.746 75.3086 130.746C74.4363 130.746 73.7266 131.456 73.7266 132.328ZM75.3086 131.801C75.5993 131.801 75.8359 132.037 75.8359 132.328C75.8359 132.619 75.5993 132.855 75.3086 132.855C75.0179 132.855 74.7812 132.619 74.7812 132.328C74.7812 132.037 75.0179 131.801 75.3086 131.801Z" fill="white"/>
<path d="M66.7994 152.637H66.8002C66.8009 152.637 66.8016 152.637 66.8023 152.637H76.3633C76.5987 152.637 76.8056 152.481 76.8703 152.254L78.9797 144.871C79.0251 144.712 78.9933 144.541 78.8937 144.409C78.794 144.277 78.6381 144.199 78.4727 144.199H65.5832L65.2063 142.503C65.1526 142.262 64.9386 142.09 64.6914 142.09H61.5273C61.2361 142.09 61 142.326 61 142.617C61 142.908 61.2361 143.145 61.5273 143.145H64.2684C64.3352 143.445 66.0724 151.263 66.1724 151.712C65.6119 151.956 65.2188 152.515 65.2188 153.164C65.2188 154.036 65.9285 154.746 66.8008 154.746H76.3633C76.6546 154.746 76.8906 154.51 76.8906 154.219C76.8906 153.927 76.6546 153.691 76.3633 153.691H66.8008C66.5101 153.691 66.2734 153.455 66.2734 153.164C66.2734 152.874 66.5092 152.638 66.7994 152.637ZM77.7735 145.254L75.9654 151.582H67.2238L65.8175 145.254H77.7735Z" fill="#CDD1D3"/>
<path d="M66.2734 156.328C66.2734 157.2 66.9832 157.91 67.8555 157.91C68.7278 157.91 69.4375 157.2 69.4375 156.328C69.4375 155.456 68.7278 154.746 67.8555 154.746C66.9832 154.746 66.2734 155.456 66.2734 156.328ZM67.8555 155.801C68.1462 155.801 68.3828 156.037 68.3828 156.328C68.3828 156.619 68.1462 156.855 67.8555 156.855C67.5647 156.855 67.3281 156.619 67.3281 156.328C67.3281 156.037 67.5647 155.801 67.8555 155.801Z" fill="#CDD1D3"/>
<path d="M73.7266 156.328C73.7266 157.2 74.4363 157.91 75.3086 157.91C76.1809 157.91 76.8906 157.2 76.8906 156.328C76.8906 155.456 76.1809 154.746 75.3086 154.746C74.4363 154.746 73.7266 155.456 73.7266 156.328ZM75.3086 155.801C75.5993 155.801 75.8359 156.037 75.8359 156.328C75.8359 156.619 75.5993 156.855 75.3086 156.855C75.0179 156.855 74.7812 156.619 74.7812 156.328C74.7812 156.037 75.0179 155.801 75.3086 155.801Z" fill="#CDD1D3"/>
<path d="M66.7994 176.637H66.8002C66.8009 176.637 66.8016 176.637 66.8023 176.637H76.3633C76.5987 176.637 76.8056 176.481 76.8703 176.254L78.9797 168.871C79.0251 168.712 78.9933 168.541 78.8937 168.409C78.794 168.277 78.6381 168.199 78.4727 168.199H65.5832L65.2063 166.503C65.1526 166.262 64.9386 166.09 64.6914 166.09H61.5273C61.2361 166.09 61 166.326 61 166.617C61 166.908 61.2361 167.145 61.5273 167.145H64.2684C64.3352 167.445 66.0724 175.263 66.1724 175.712C65.6119 175.956 65.2188 176.515 65.2188 177.164C65.2188 178.036 65.9285 178.746 66.8008 178.746H76.3633C76.6546 178.746 76.8906 178.51 76.8906 178.219C76.8906 177.927 76.6546 177.691 76.3633 177.691H66.8008C66.5101 177.691 66.2734 177.455 66.2734 177.164C66.2734 176.874 66.5092 176.638 66.7994 176.637ZM77.7735 169.254L75.9654 175.582H67.2238L65.8175 169.254H77.7735Z" fill="white"/>
<path d="M66.2734 180.328C66.2734 181.2 66.9832 181.91 67.8555 181.91C68.7278 181.91 69.4375 181.2 69.4375 180.328C69.4375 179.456 68.7278 178.746 67.8555 178.746C66.9832 178.746 66.2734 179.456 66.2734 180.328ZM67.8555 179.801C68.1462 179.801 68.3828 180.037 68.3828 180.328C68.3828 180.619 68.1462 180.855 67.8555 180.855C67.5647 180.855 67.3281 180.619 67.3281 180.328C67.3281 180.037 67.5647 179.801 67.8555 179.801Z" fill="white"/>
<path d="M73.7266 180.328C73.7266 181.2 74.4363 181.91 75.3086 181.91C76.1809 181.91 76.8906 181.2 76.8906 180.328C76.8906 179.456 76.1809 178.746 75.3086 178.746C74.4363 178.746 73.7266 179.456 73.7266 180.328ZM75.3086 179.801C75.5993 179.801 75.8359 180.037 75.8359 180.328C75.8359 180.619 75.5993 180.855 75.3086 180.855C75.0179 180.855 74.7812 180.619 74.7812 180.328C74.7812 180.037 75.0179 179.801 75.3086 179.801Z" fill="white"/>
<path d="M66.7994 200.637H66.8002C66.8009 200.637 66.8016 200.637 66.8023 200.637H76.3633C76.5987 200.637 76.8056 200.481 76.8703 200.254L78.9797 192.871C79.0251 192.712 78.9933 192.541 78.8937 192.409C78.794 192.277 78.6381 192.199 78.4727 192.199H65.5832L65.2063 190.503C65.1526 190.262 64.9386 190.09 64.6914 190.09H61.5273C61.2361 190.09 61 190.326 61 190.617C61 190.908 61.2361 191.145 61.5273 191.145H64.2684C64.3352 191.445 66.0724 199.263 66.1724 199.712C65.6119 199.956 65.2188 200.515 65.2188 201.164C65.2188 202.036 65.9285 202.746 66.8008 202.746H76.3633C76.6546 202.746 76.8906 202.51 76.8906 202.219C76.8906 201.927 76.6546 201.691 76.3633 201.691H66.8008C66.5101 201.691 66.2734 201.455 66.2734 201.164C66.2734 200.874 66.5092 200.638 66.7994 200.637ZM77.7735 193.254L75.9654 199.582H67.2238L65.8175 193.254H77.7735Z" fill="#E45400"/>
<path d="M66.2734 204.328C66.2734 205.2 66.9832 205.91 67.8555 205.91C68.7278 205.91 69.4375 205.2 69.4375 204.328C69.4375 203.456 68.7278 202.746 67.8555 202.746C66.9832 202.746 66.2734 203.456 66.2734 204.328ZM67.8555 203.801C68.1462 203.801 68.3828 204.037 68.3828 204.328C68.3828 204.619 68.1462 204.855 67.8555 204.855C67.5647 204.855 67.3281 204.619 67.3281 204.328C67.3281 204.037 67.5647 203.801 67.8555 203.801Z" fill="#E45400"/>
<path d="M73.7266 204.328C73.7266 205.2 74.4363 205.91 75.3086 205.91C76.1809 205.91 76.8906 205.2 76.8906 204.328C76.8906 203.456 76.1809 202.746 75.3086 202.746C74.4363 202.746 73.7266 203.456 73.7266 204.328ZM75.3086 203.801C75.5993 203.801 75.8359 204.037 75.8359 204.328C75.8359 204.619 75.5993 204.855 75.3086 204.855C75.0179 204.855 74.7812 204.619 74.7812 204.328C74.7812 204.037 75.0179 203.801 75.3086 203.801Z" fill="#E45400"/>
<rect x="2.34302" y="6.3999" width="1.6" height="8" rx="0.8" transform="rotate(-45 2.34302 6.3999)" fill="black"/>
<rect x="8.00024" y="12.0569" width="1.6" height="8" rx="0.8" transform="rotate(-135 8.00024 12.0569)" fill="black"/>
<rect x="2.34302" y="22.3999" width="1.6" height="8" rx="0.8" transform="rotate(-45 2.34302 22.3999)" fill="#CDD1D3"/>
<rect x="8.00024" y="28.0569" width="1.6" height="8" rx="0.8" transform="rotate(-135 8.00024 28.0569)" fill="#CDD1D3"/>
<rect x="2.34302" y="38.3999" width="1.6" height="8" rx="0.8" transform="rotate(-45 2.34302 38.3999)" fill="black"/>
<rect x="8.00024" y="44.0569" width="1.6" height="8" rx="0.8" transform="rotate(-135 8.00024 44.0569)" fill="black"/>
<rect x="2.34302" y="54.3999" width="1.6" height="8" rx="0.8" transform="rotate(-45 2.34302 54.3999)" fill="#E45400"/>
<rect x="8.00024" y="60.0569" width="1.6" height="8" rx="0.8" transform="rotate(-135 8.00024 60.0569)" fill="#E45400"/>
<rect x="2.34302" y="70.3999" width="1.6" height="8" rx="0.8" transform="rotate(-45 2.34302 70.3999)" fill="white"/>
<rect x="8.00024" y="76.0569" width="1.6" height="8" rx="0.8" transform="rotate(-135 8.00024 76.0569)" fill="white"/>
<path d="M9 125H7V127H9V125ZM13 125H11V127H13V125ZM17 125H15V127H17V125ZM19 118H18V116H16V118H8V116H6V118H5C3.89 118 3.01 118.9 3.01 120L3 134C3 135.1 3.89 136 5 136H19C20.1 136 21 135.1 21 134V120C21 118.9 20.1 118 19 118ZM19 134H5V123H19V134Z" fill="#E94E1B"/>
<path d="M9 149H7V151H9V149ZM13 149H11V151H13V149ZM17 149H15V151H17V149ZM19 142H18V140H16V142H8V140H6V142H5C3.89 142 3.01 142.9 3.01 144L3 158C3 159.1 3.89 160 5 160H19C20.1 160 21 159.1 21 158V144C21 142.9 20.1 142 19 142ZM19 158H5V147H19V158Z" fill="#CDD1D3"/>
<path d="M9 197H7V199H9V197ZM13 197H11V199H13V197ZM17 197H15V199H17V197ZM19 190H18V188H16V190H8V188H6V190H5C3.89 190 3.01 190.9 3.01 192L3 206C3 207.1 3.89 208 5 208H19C20.1 208 21 207.1 21 206V192C21 190.9 20.1 190 19 190ZM19 206H5V195H19V206Z" fill="#E45400"/>
<path d="M106.805 269.862L102.255 265.312C103.136 264.223 103.667 262.84 103.667 261.333C103.667 257.841 100.825 255 97.3333 255C93.8413 255 91 257.841 91 261.333C91 264.825 93.8413 267.667 97.3333 267.667C98.8399 267.667 100.223 267.136 101.312 266.255L105.862 270.804C105.992 270.934 106.163 271 106.333 271C106.504 271 106.675 270.934 106.805 270.804C107.065 270.544 107.065 270.123 106.805 269.862ZM97.3333 266.333C94.576 266.333 92.3333 264.091 92.3333 261.333C92.3333 258.576 94.576 256.333 97.3333 256.333C100.091 256.333 102.333 258.576 102.333 261.333C102.333 264.091 100.091 266.333 97.3333 266.333Z" fill="#858585"/>
<g clip-path="url(#clip0)">
<path d="M135.805 269.863L131.255 265.313C132.136 264.224 132.667 262.841 132.667 261.334C132.667 257.842 129.825 255.001 126.333 255.001C122.841 255.001 120 257.842 120 261.334C120 264.826 122.841 267.668 126.333 267.668C127.84 267.668 129.223 267.137 130.312 266.256L134.862 270.805C134.992 270.935 135.163 271.001 135.333 271.001C135.504 271.001 135.675 270.935 135.805 270.805C136.065 270.545 136.065 270.123 135.805 269.863ZM126.333 266.334C123.576 266.334 121.333 264.092 121.333 261.334C121.333 258.577 123.576 256.334 126.333 256.334C129.091 256.334 131.333 258.577 131.333 261.334C131.333 264.092 129.091 266.334 126.333 266.334Z" fill="white"/>
</g>
<path d="M5.0625 271H19.9375C20.5243 271 21 270.552 21 270C21 269.448 20.5243 269 19.9375 269H5.0625C4.4757 269 4 269.448 4 270C4 270.552 4.4757 271 5.0625 271Z" fill="white"/>
<path d="M11.0625 265H19.5625C20.1493 265 20.625 264.552 20.625 264C20.625 263.448 20.1493 263 19.5625 263H11.0625C10.4757 263 10 263.448 10 264C10 264.552 10.4757 265 11.0625 265Z" fill="white"/>
<path d="M5.0625 259H19.9375C20.5243 259 21 258.552 21 258C21 257.448 20.5243 257 19.9375 257H5.0625C4.4757 257 4 257.448 4 258C4 258.552 4.4757 259 5.0625 259Z" fill="white"/>
<path fill-rule="evenodd" clip-rule="evenodd" d="M36 256C35.4477 256 35 256.448 35 257V270C35 270.552 35.4477 271 36 271H46C46.5523 271 47 270.552 47 270V257C47 256.448 46.5523 256 46 256H36ZM44 259H38V260H44V259ZM44 263H38V264H44V263ZM38 267H44V268H38V267Z" fill="#009FE3"/>
<g clip-path="url(#clip1)">
<path d="M45.1888 413.216C45.1888 418.82 40.646 423.363 35.042 423.363C29.4383 423.363 24.8953 418.82 24.8953 413.216C24.8953 407.612 29.4383 403.069 35.042 403.069C40.646 403.069 45.1888 407.612 45.1888 413.216Z" fill="#FFE475"/>
<path d="M44.6969 421.527C41.5805 425.151 36.6975 426.725 32.0512 425.604C27.4047 424.484 23.777 420.856 22.6559 416.209C21.5351 411.563 23.1095 406.68 26.7336 403.563C22.3778 408.615 22.6569 416.171 27.3732 420.887C32.0896 425.603 39.6455 425.882 44.6969 421.527Z" fill="#CDA700"/>
<path d="M36.3862 413.216C36.3862 413.956 35.7855 414.557 35.0447 414.557C34.3038 414.557 33.7031 413.956 33.7031 413.216C33.7031 412.475 34.3038 411.874 35.0447 411.874C35.7855 411.874 36.3862 412.475 36.3862 413.216Z" fill="white"/>
<path d="M35.0401 399.799C27.6312 399.799 21.6248 405.805 21.6248 413.214C21.6248 420.623 27.6312 426.63 35.0401 426.63C42.4494 426.63 48.4555 420.623 48.4555 413.214C48.447 405.809 42.4458 399.807 35.0401 399.799ZM35.0401 425.288C28.3721 425.288 22.9663 419.883 22.9663 413.214C22.9663 406.546 28.3721 401.14 35.0401 401.14C41.7085 401.14 47.114 406.546 47.114 413.214C47.1065 419.879 41.7053 425.28 35.0401 425.288Z" fill="#363636"/>
<path d="M35.7154 411.327V405.166H34.3738V411.327C33.8059 411.53 33.3588 411.977 33.1558 412.545H28.3369V413.886H33.1558C33.4659 414.769 34.3453 415.321 35.2755 415.216C36.2057 415.111 36.9397 414.377 37.0448 413.446C37.1499 412.516 36.5984 411.637 35.7154 411.327ZM35.0446 413.886C34.6742 413.886 34.3738 413.586 34.3738 413.215C34.3738 412.845 34.6742 412.545 35.0446 412.545C35.415 412.545 35.7154 412.845 35.7154 413.215C35.7154 413.586 35.415 413.886 35.0446 413.886Z" fill="#363636"/>
<path d="M24.3123 412.545H25.6538V413.887H24.3123V412.545Z" fill="#363636"/>
<path d="M34.3738 422.607H35.7153V423.948H34.3738V422.607Z" fill="#363636"/>
<path d="M44.4353 412.545H45.7769V413.887H44.4353V412.545Z" fill="#363636"/>
<path d="M34.3738 402.483H35.7153V403.825H34.3738V402.483Z" fill="#363636"/>
<path d="M52.4846 413.216C52.4862 422.654 44.9797 430.38 35.5457 430.651C26.1117 430.923 18.1738 423.64 17.6334 414.217C17.0927 404.795 24.1459 396.652 33.5488 395.843L31.9436 397.756L32.9714 398.618L35.5585 395.532C35.7966 395.248 35.7599 394.825 35.476 394.587L32.3904 392L31.5306 393.032L33.3005 394.518C23.1981 395.46 15.6702 404.256 16.2994 414.383C16.9283 424.51 25.4871 432.306 35.6286 431.991C45.77 431.676 53.8278 423.362 53.8261 413.216H52.4846Z" fill="#363636"/>
<path d="M52.1152 409.63L53.4285 409.356C53.3339 408.904 53.2212 408.45 53.0932 408.006L51.8037 408.377C51.9226 408.789 52.0271 409.211 52.1152 409.63Z" fill="#363636"/>
<path d="M51.4008 407.151L52.6591 406.684C52.4987 406.252 52.3238 405.82 52.1279 405.4L50.9082 405.959C51.0867 406.349 51.2531 406.749 51.4008 407.151Z" fill="#363636"/>
<path d="M50.3282 404.806L51.5027 404.158C51.2793 403.756 51.0386 403.353 50.7871 402.967L49.6633 403.699C49.8969 404.058 50.1209 404.428 50.3282 404.806Z" fill="#363636"/>
<path d="M52.4551 412.189L53.7966 412.11C53.7691 411.648 53.7249 411.182 53.6627 410.727L52.3323 410.903C52.388 411.327 52.4289 411.759 52.4551 412.189Z" fill="#363636"/>
<path d="M48.918 402.646L49.9844 401.832C49.7041 401.464 49.407 401.104 49.1011 400.758L48.095 401.648C48.3822 401.969 48.6613 402.305 48.918 402.646Z" fill="#363636"/>
<path d="M43.6416 396.514C43.2325 396.302 42.8087 396.103 42.382 395.921L41.8569 397.156C42.2532 397.324 42.6463 397.51 43.0265 397.705L43.6416 396.514Z" fill="#363636"/>
<path d="M41.0815 395.426C40.6449 395.278 40.1962 395.144 39.7475 395.028L39.4121 396.327C39.8281 396.434 40.2444 396.559 40.6495 396.696L41.0815 395.426Z" fill="#363636"/>
<path d="M48.1407 399.753C47.8095 399.431 47.462 399.117 47.1083 398.821L46.2466 399.849C46.5751 400.124 46.8977 400.415 47.2049 400.715L48.1407 399.753Z" fill="#363636"/>
<path d="M38.3899 394.731C37.9369 394.649 37.4735 394.583 37.0126 394.535L36.8738 395.87C37.3018 395.914 37.7319 395.975 38.1482 396.051L38.3899 394.731Z" fill="#363636"/>
<path d="M46.0109 397.967C45.6353 397.699 45.2455 397.438 44.8532 397.197L44.1516 398.337C44.5165 398.561 44.8781 398.802 45.2249 399.054L46.0109 397.967Z" fill="#363636"/>
</g>
<path d="M36.9625 451.923C36.9625 449.756 36.0843 448 35.001 448C33.9177 448 33.0396 449.756 33.0396 451.923C33.0396 454.089 33.9177 455.846 35.001 455.846C36.0843 455.846 36.9625 454.089 36.9625 451.923Z" fill="#F81B24"/>
<path d="M43.2357 454.656C44.319 452.779 44.4366 450.819 43.4985 450.278C42.5603 449.736 40.9216 450.818 39.8383 452.694C38.7551 454.571 38.6374 456.531 39.5756 457.072C40.5137 457.614 42.1524 456.532 43.2357 454.656Z" fill="#F81B24"/>
<path d="M47.3046 460.161C49.1809 459.078 50.2628 457.439 49.7212 456.501C49.1796 455.563 47.2194 455.681 45.3431 456.764C43.4668 457.847 42.3849 459.486 42.9265 460.424C43.4682 461.362 45.4283 461.245 47.3046 460.161Z" fill="#F81B24"/>
<path d="M48.0771 466.962C50.2437 466.962 52 466.084 52 465.001C52 463.917 50.2437 463.039 48.0771 463.039C45.9105 463.039 44.1542 463.917 44.1542 465.001C44.1542 466.084 45.9105 466.962 48.0771 466.962Z" fill="#F81B24"/>
<path d="M45.3421 473.237C47.2184 474.32 49.1786 474.438 49.7202 473.5C50.2618 472.562 49.1799 470.923 47.3036 469.84C45.4273 468.756 43.4672 468.639 42.9255 469.577C42.3839 470.515 43.4658 472.154 45.3421 473.237Z" fill="#F81B24"/>
<path d="M39.8414 477.305C40.9247 479.181 42.5634 480.263 43.5015 479.721C44.4397 479.18 44.322 477.219 43.2387 475.343C42.1555 473.467 40.5168 472.385 39.5786 472.927C38.6405 473.468 38.7581 475.428 39.8414 477.305Z" fill="#F81B24"/>
<path d="M33.0375 478.077C33.0375 480.244 33.9157 482 34.999 482C36.0823 482 36.9604 480.244 36.9604 478.077C36.9604 475.911 36.0823 474.154 34.999 474.154C33.9157 474.154 33.0375 475.911 33.0375 478.077Z" fill="#F81B24"/>
<path d="M26.7643 475.344C25.681 477.221 25.5634 479.181 26.5015 479.722C27.4397 480.264 29.0784 479.182 30.1617 477.306C31.2449 475.429 31.3626 473.469 30.4244 472.928C29.4863 472.386 27.8476 473.468 26.7643 475.344Z" fill="#F81B24"/>
<path d="M22.6954 469.839C20.8191 470.922 19.7372 472.561 20.2788 473.499C20.8204 474.437 22.7806 474.319 24.6569 473.236C26.5332 472.153 27.6151 470.514 27.0735 469.576C26.5318 468.638 24.5717 468.755 22.6954 469.839Z" fill="#F81B24"/>
<path d="M21.9229 463.038C19.7563 463.038 18 463.916 18 464.999C18 466.082 19.7563 466.96 21.9229 466.96C24.0895 466.96 25.8458 466.082 25.8458 464.999C25.8458 463.916 24.0895 463.038 21.9229 463.038Z" fill="#F81B24"/>
<path d="M24.6564 456.763C22.7801 455.68 20.82 455.562 20.2783 456.5C19.7367 457.438 20.8186 459.077 22.6949 460.16C24.5712 461.244 26.5314 461.361 27.073 460.423C27.6147 459.485 26.5327 457.846 24.6564 456.763Z" fill="#F81B24"/>
<path d="M30.1586 452.695C29.0753 450.818 27.4366 449.736 26.4985 450.278C25.5603 450.82 25.678 452.78 26.7613 454.656C27.8445 456.532 29.4832 457.614 30.4214 457.073C31.3595 456.531 31.2419 454.571 30.1586 452.695Z" fill="#F81B24"/>
<path d="M53.6776 510.322C48.9558 505.6 42.6777 503 36 503C29.3222 503 23.044 505.6 18.3223 510.322C13.6004 515.044 11 521.322 11 528C11 534.678 13.6004 540.956 18.3223 545.678C23.0441 550.4 29.3222 553 36 553C42.6777 553 48.9558 550.4 53.6776 545.678C58.3995 540.956 61 534.678 61 528C61 521.322 58.3995 515.044 53.6776 510.322ZM36 550.07C23.8304 550.07 13.9297 540.17 13.9297 528C13.9297 515.83 23.8304 505.93 36 505.93C48.1696 505.93 58.0703 515.83 58.0703 528C58.0703 540.17 48.1696 550.07 36 550.07Z" fill="#00BB29"/>
<path d="M47.9438 519.979C47.3718 519.407 46.4443 519.407 45.8723 519.979L32.9369 532.914L26.1276 526.105C25.5556 525.533 24.6281 525.533 24.056 526.105C23.4839 526.677 23.4839 527.604 24.056 528.177L31.901 536.022C32.1871 536.308 32.562 536.451 32.9368 536.451C33.3116 536.451 33.6866 536.308 33.9725 536.022L47.9438 522.05C48.5159 521.478 48.5159 520.551 47.9438 519.979Z" fill="#00BB29"/>
<path d="M9 173H7V175H9V173ZM13 173H11V175H13V173ZM17 173H15V175H17V173ZM19 166H18V164H16V166H8V164H6V166H5C3.89 166 3.01 166.9 3.01 168L3 182C3 183.1 3.89 184 5 184H19C20.1 184 21 183.1 21 182V168C21 166.9 20.1 166 19 166ZM19 182H5V171H19V182Z" fill="#2C2C2C"/>
<path d="M90.7617 118.711V128.694C90.7617 130.399 92.1494 131.787 93.8551 131.787H103.669L110.179 136.318V131.787C111.88 131.782 113.262 130.396 113.262 128.694V118.711C113.262 117.005 111.874 115.617 110.168 115.617H93.8551C92.1494 115.617 90.7617 117.005 90.7617 118.711Z" fill="#E94E1B"/>
<path d="M90.7617 118.711V128.694C90.7617 130.399 92.1494 131.787 93.855 131.787H102.015V115.617H93.855C92.1494 115.617 90.7617 117.005 90.7617 118.711Z" fill="#E94E1B"/>
<path d="M107.24 120.275H96.7843V121.594H107.24V120.275Z" fill="white"/>
<path d="M107.24 123.088H96.7843V124.406H107.24V123.088Z" fill="white"/>
<path d="M107.24 125.9H96.7843V127.219H107.24V125.9Z" fill="white"/>
<path d="M90.7617 142.711V152.694C90.7617 154.399 92.1494 155.787 93.8551 155.787H103.669L110.179 160.318V155.787C111.88 155.782 113.262 154.396 113.262 152.694V142.711C113.262 141.005 111.874 139.617 110.168 139.617H93.8551C92.1494 139.617 90.7617 141.005 90.7617 142.711Z" fill="#CDD1D3"/>
<path d="M90.7617 142.711V152.694C90.7617 154.399 92.1494 155.787 93.855 155.787H102.015V139.617H93.855C92.1494 139.617 90.7617 141.005 90.7617 142.711Z" fill="#CDD1D3"/>
<path d="M107.24 144.275H96.7843V145.594H107.24V144.275Z" fill="white"/>
<path d="M107.24 147.088H96.7843V148.406H107.24V147.088Z" fill="white"/>
<path d="M107.24 149.9H96.7843V151.219H107.24V149.9Z" fill="white"/>
<path d="M90.7617 166.711V176.694C90.7617 178.399 92.1494 179.787 93.8551 179.787H103.669L110.179 184.318V179.787C111.88 179.782 113.262 178.396 113.262 176.694V166.711C113.262 165.005 111.874 163.617 110.168 163.617H93.8551C92.1494 163.617 90.7617 165.005 90.7617 166.711Z" fill="#2C2C2C"/>
<path d="M90.7617 166.711V176.694C90.7617 178.399 92.1494 179.787 93.855 179.787H102.015V163.617H93.855C92.1494 163.617 90.7617 165.005 90.7617 166.711Z" fill="#2C2C2C"/>
<path d="M107.24 168.275H96.7843V169.594H107.24V168.275Z" fill="white"/>
<path d="M107.24 171.088H96.7843V172.406H107.24V171.088Z" fill="white"/>
<path d="M107.24 173.9H96.7843V175.219H107.24V173.9Z" fill="white"/>
<path d="M90.7617 190.711V200.694C90.7617 202.399 92.1494 203.787 93.8551 203.787H103.669L110.179 208.318V203.787C111.88 203.782 113.262 202.396 113.262 200.694V190.711C113.262 189.005 111.874 187.617 110.168 187.617H93.8551C92.1494 187.617 90.7617 189.005 90.7617 190.711Z" fill="#E45400"/>
<path d="M90.7617 190.711V200.694C90.7617 202.399 92.1494 203.787 93.855 203.787H102.015V187.617H93.855C92.1494 187.617 90.7617 189.005 90.7617 190.711Z" fill="#E45400"/>
<path d="M107.24 192.275H96.7843V193.594H107.24V192.275Z" fill="white"/>
<path d="M107.24 195.088H96.7843V196.406H107.24V195.088Z" fill="white"/>
<path d="M107.24 197.9H96.7843V199.219H107.24V197.9Z" fill="white"/>
<circle cx="134.5" cy="120.5" r="1.5" fill="#A9A9A9"/>
<circle cx="134.5" cy="126.5" r="1.5" fill="#A9A9A9"/>
<circle cx="134.5" cy="132.5" r="1.5" fill="#A9A9A9"/>
<circle cx="134.5" cy="144.5" r="1.5" fill="#005168"/>
<circle cx="134.5" cy="150.5" r="1.5" fill="#005168"/>
<circle cx="134.5" cy="156.5" r="1.5" fill="#005168"/>
<path d="M162.5 267.5H165.5V266H162.5V267.5ZM157.25 258.5V260H170.75V258.5H157.25ZM159.5 263.75H168.5V262.25H159.5V263.75Z" fill="#E94E1B"/>
<path d="M172.756 122.185H171.059V119.098C171.059 118.803 170.82 118.564 170.525 118.564H161.475C161.18 118.564 160.941 118.803 160.941 119.098V122.185H159.244C158.558 122.185 158 122.743 158 123.429V128.795C158 129.481 158.558 130.039 159.244 130.039H160.941V132.902C160.941 133.197 161.18 133.435 161.475 133.435H170.525C170.82 133.435 171.059 133.197 171.059 132.902V130.039H172.756C173.442 130.039 174 129.481 174 128.795V123.429C174 122.743 173.442 122.185 172.756 122.185ZM162.008 119.631H169.992V122.185H162.008V119.631ZM169.992 132.369H162.008C162.008 132.264 162.008 128.134 162.008 128.005H169.992C169.992 128.137 169.992 132.268 169.992 132.369ZM172.933 128.795C172.933 128.893 172.854 128.972 172.756 128.972H171.059V127.472C171.059 127.178 170.82 126.939 170.525 126.939H161.475C161.18 126.939 160.941 127.177 160.941 127.472V128.972H159.244C159.146 128.972 159.067 128.893 159.067 128.795V123.429C159.067 123.331 159.146 123.251 159.244 123.251C159.654 123.251 172.356 123.251 172.756 123.251C172.854 123.251 172.933 123.331 172.933 123.429V128.795Z" fill="black"/>
<path d="M170.525 124.25H169.167C168.873 124.25 168.634 124.488 168.634 124.783C168.634 125.077 168.873 125.316 169.167 125.316H170.525C170.819 125.316 171.058 125.077 171.058 124.783C171.058 124.488 170.819 124.25 170.525 124.25Z" fill="black"/>
<path d="M168.311 130.495H163.689C163.394 130.495 163.156 130.734 163.156 131.028C163.156 131.323 163.394 131.562 163.689 131.562H168.311C168.606 131.562 168.844 131.323 168.844 131.028C168.844 130.734 168.606 130.495 168.311 130.495Z" fill="black"/>
<path d="M168.311 128.813H163.689C163.394 128.813 163.156 129.052 163.156 129.346C163.156 129.641 163.394 129.879 163.689 129.879H168.311C168.606 129.879 168.844 129.641 168.844 129.346C168.844 129.052 168.606 128.813 168.311 128.813Z" fill="black"/>
<path d="M204.75 127.781V132.125C204.75 132.47 204.47 132.75 204.125 132.75H191.875C191.53 132.75 191.25 132.47 191.25 132.125V127.781H190V132.125C190 133.159 190.841 134 191.875 134H204.125C205.159 134 206 133.159 206 132.125V127.781H204.75Z" fill="black"/>
<path d="M200.999 125.366L198.624 127.741V118H197.374V127.741L194.999 125.366L194.115 126.25L197.999 130.134L201.883 126.25L200.999 125.366Z" fill="black"/>
<rect x="223.397" y="120.997" width="2.26274" height="16.9706" rx="1" transform="rotate(-45 223.397 120.997)" fill="black"/>
<rect x="224.997" y="132.997" width="2.26274" height="16.9706" rx="1" transform="rotate(-135 224.997 132.997)" fill="black"/>
<rect width="1.57781" height="7.88903" rx="0.788903" transform="matrix(0.717053 0.697018 -0.717053 0.697018 35.6001 2.27759)" fill="#E94E1B"/>
<rect width="1.57781" height="7.88903" rx="0.788903" transform="matrix(0.717053 -0.697018 0.717053 0.697018 29.9431 7.77686)" fill="#E94E1B"/>
<rect width="1.57781" height="7.88903" rx="0.788903" transform="matrix(0.717053 0.697018 -0.717053 0.697018 35.6001 34.2776)" fill="black"/>
<rect width="1.57781" height="7.88903" rx="0.788903" transform="matrix(0.717053 -0.697018 0.717053 0.697018 29.9431 39.7769)" fill="black"/>
<defs>
<clipPath id="clip0">
<path d="M120 255H136V271H120V255Z" fill="white"/>
</clipPath>
<clipPath id="clip1">
<rect x="15" y="392" width="40" height="40" fill="white"/>
</clipPath>
</defs>
</svg>
